<svg width="48" height="40" viewBox="0 0 48 40" fill="none" xmlns="http://www.w3.org/2000/svg">
<path d="M16 20C19.866 20 23 23.134 23 27C23 30.866 19.866 34 16 34C12.134 34 9 30.866 9 27C9 23.134 12.134 20 16 20Z" fill="#314338"/>
<path d="M32 20C35.866 20 39 23.134 39 27C39 30.866 35.866 34 32 34C28.134 34 25 30.866 25 27C25 23.134 28.134 20 32 20Z" fill="#314338"/>
<path d="M24 6C27.866 6 31 9.13401 31 13C31 16.866 27.866 20 24 20C20.134 20 17 16.866 17 13C17 9.13401 20.134 6 24 6Z" fill="#314338"/>
</svg>
