<?xml version="1.0" encoding="iso-8859-1"?>
<!-- Generator: Adobe Illustrator 15.0.0, SVG Export Plug-In . SVG Version: 6.00 Build 0)  -->
<!DOCTYPE svg PUBLIC "-//W3C//DTD SVG 1.1//EN" "http://www.w3.org/Graphics/SVG/1.1/DTD/svg11.dtd">
<svg version="1.1" id="Layer_1" xmlns="http://www.w3.org/2000/svg" xmlns:xlink="http://www.w3.org/1999/xlink" x="0px" y="0px"
	 width="48px" height="40px" viewBox="0 0 48 40" style="enable-background:new 0 0 48 40;" xml:space="preserve">
<path style="fill-rule:evenodd;clip-rule:evenodd;fill:#314338;" d="M30.626,16.057c-0.026-0.112,0.082-0.151,0.082-0.199
	c-0.445,0.091-0.736,0.398-1.232,0.399c0.001-0.124,0.09-0.181,0.13-0.271c0.075-0.173,0.113-0.342,0.188-0.492
	c0.072-0.148,0.168-0.282,0.258-0.423c0.171-0.265,0.344-0.539,0.599-0.762c0.238-0.209,0.538-0.35,0.809-0.551
	c0.121-0.091,0.258-0.188,0.398-0.281c0.128-0.085,0.313-0.159,0.41-0.259c0.116-0.117,0.179-0.356,0.282-0.504
	c-0.061-0.093-0.16-0.102-0.224-0.199c-0.203-0.316-0.093-0.957-0.023-1.313c-0.441,0.084-0.8,0.361-1.102,0.645
	c-0.104,0.097-0.229,0.173-0.316,0.271c-0.279,0.307-0.518,0.647-0.845,0.926c-0.105,0.09-0.194,0.206-0.305,0.281
	c-0.159,0.108-0.356,0.196-0.54,0.306c-0.51,0.305-1.136,0.605-1.864,0.668c-0.527,0.045-1.009-0.005-1.442-0.199
	c-0.446-0.2-0.918-0.409-1.103-0.88c-1.202,0.151-2.312,0.517-3.611,0.517c-1.462,0-2.425-0.604-3.354-1.185
	c-0.15-0.094-0.305-0.195-0.445-0.305c-0.137-0.107-0.3-0.229-0.352-0.399c0.264,0.034,0.479,0.193,0.691,0.329
	c0.604,0.385,1.458,0.598,2.486,0.527c0.887-0.061,1.791-0.239,2.639-0.398c0.297-0.057,0.599-0.075,0.867-0.141
	c0.235-0.058,0.437-0.211,0.646-0.271c-0.005-0.084-0.027-0.152-0.035-0.234c-1.832-0.519-3.377-1.385-4.503-2.65
	c-0.031-0.034-0.23-0.188-0.141-0.258c0.056-0.043,0.352,0.268,0.434,0.328c0.343,0.253,0.636,0.369,1.044,0.563
	c0.188,0.09,0.369,0.18,0.551,0.246c0.196,0.071,0.383,0.164,0.587,0.223c0.205,0.059,0.431,0.09,0.656,0.141
	c0.444,0.101,0.923,0.119,1.431,0.164c0.072-0.212,0.118-0.452,0.211-0.645c-0.47-0.733-0.445-1.806-0.821-2.604
	c-0.041-0.087-0.113-0.172-0.176-0.258c-0.061-0.085-0.117-0.189-0.176-0.258c-0.076-0.089-0.195-0.162-0.281-0.259
	c-0.195-0.217-0.402-0.396-0.68-0.539c-0.142-0.072-0.323-0.13-0.399-0.293c0.956,0.197,1.693,0.613,2.229,1.231
	c-0.007-0.368-0.078-0.717-0.059-1.079c0.017-0.314,0.067-0.625,0.047-0.938c-0.047-0.695-0.478-1.226-0.856-1.642
	c-0.199-0.219-0.421-0.427-0.633-0.621c-0.11-0.102-0.193-0.219-0.293-0.328c-0.096-0.105-0.26-0.155-0.294-0.306
	c0.188,0.012,0.356,0.122,0.517,0.211c0.785,0.44,1.473,1.003,2.075,1.666c0.233,0.256,0.493,0.569,0.622,0.867
	c0.337,0.779,0.117,2.004,0.258,3.014c0.074-0.046,0.131-0.122,0.188-0.188c0.175-0.203,0.365-0.4,0.563-0.598
	c0.256-0.256,0.547-0.477,0.81-0.739c0.514-0.514,1.111-0.977,1.114-1.981c0.001-0.426-0.087-0.85-0.176-1.231
	c-0.09-0.385-0.2-0.744-0.328-1.079c-0.266-0.688-0.625-1.244-0.985-1.817c0.015-0.025,0.229,0.128,0.199,0.164
	c0.249,0.139,0.463,0.33,0.668,0.527c0.201,0.193,0.438,0.354,0.634,0.552c0.391,0.396,0.664,0.931,0.879,1.501
	c0.401,1.064,0.664,3.014-0.258,3.753c-0.244,0.475-0.641,0.821-0.996,1.207c-0.117,0.127-0.293,0.249-0.376,0.388
	c-0.2,0.333-0.464,0.796-0.586,1.185c-0.146,0.462-0.163,1.139-0.141,1.724c0.021,0.568,0.11,1.162,0.422,1.466
	c0.565,0.549,1.398-0.3,1.7-0.622c0.347-0.369,0.642-0.763,1.044-1.031c0.858-0.575,1.94-0.82,3.354-0.751
	c0.347-0.294,0.865-0.513,1.418-0.598c0.062-0.01,0.173-0.006,0.234,0.035c1.177-1.123,2.704-1.894,4.164-2.732
	c0.183,0.345,0.334,0.769,0.293,1.267c-0.006,0.072-0.039,0.15-0.047,0.234c-0.006,0.064,0.011,0.139,0,0.199
	c-0.025,0.136-0.165,0.305-0.246,0.422c-0.101,0.145-0.2,0.278-0.282,0.388c0.075-0.028,0.18-0.094,0.271-0.035
	c0.256-0.214,0.523-0.539,0.961-0.493c0.07,0.086-0.002,0.2-0.023,0.281c-0.074,0.287-0.115,0.612-0.164,0.927
	c-0.065,0.417-0.161,0.803-0.316,1.149c-0.259,0.576-0.603,1.085-0.95,1.606c-0.049,0.073-0.122,0.161-0.141,0.223
	c-0.05,0.164-0.034,0.332-0.07,0.48c-0.12,0.494-0.334,0.941-0.552,1.372c-0.385,0.767-0.781,1.44-1.313,2.088
	c-0.098,0.119-0.261,0.23-0.328,0.352c-0.057,0.1-0.089,0.235-0.142,0.353c-0.144,0.319-0.351,0.647-0.48,0.973
	c-0.554,1.381-1.187,2.708-1.899,3.929c-0.843,1.441-1.615,2.898-2.826,3.976c-0.068,0.061-0.166,0.143-0.258,0.223
	c-0.205,0.176-0.255,0.225-0.317,0.516c-0.059,0.275-0.128,0.612-0.105,0.95c0.026,0.393,0.203,0.737,0.353,1.067
	c0.301,0.669,0.514,1.288,0.762,2.063c0.08,0.251,0.205,0.48,0.352,0.704c0.045,0.068,0.131,0.187,0.129,0.223
	c-0.006,0.132-0.227,0.177-0.293,0.246c-0.242,0.254-0.257,0.71-0.316,1.161c-0.063,0.47-0.125,0.959-0.094,1.372
	c0.006,0.073,0.059,0.174,0.047,0.246c-0.017,0.104-0.188,0.176-0.281,0.223c-0.105,0.052-0.26,0.123-0.375,0.117
	c-0.097-0.004-0.152-0.074-0.235-0.07c-0.149,0.007-0.354,0.229-0.469,0.352c-0.298,0.321-0.454,0.553-0.833,0.798
	c-0.16,0.104-0.397,0.246-0.598,0.211c-0.099-0.018-0.293-0.23-0.398-0.328c-0.275-0.255-0.474-0.435-0.681-0.751
	c-0.086-0.131-0.227-0.332-0.211-0.504c0.009-0.102,0.128-0.229,0.188-0.281c0.143-0.126,0.498-0.299,0.669-0.246
	c0.147,0.045,0.121,0.229,0.27,0.316c0.1-0.028,0.193-0.086,0.305-0.094c0.054-0.004,0.107,0.025,0.164,0.023
	c0.06-0.003,0.141-0.048,0.211-0.059c0.061-0.01,0.124,0.007,0.164,0c0.11-0.021,0.172-0.138,0.281-0.141
	c-0.067-0.076-0.236-0.081-0.246-0.188c-0.011-0.127,0.331-0.269,0.399-0.364c0.069-0.099,0.131-0.276,0.199-0.422
	c0.134-0.29,0.175-0.59,0.293-0.927c0.044-0.127,0.177-0.353,0.164-0.445c-0.016-0.114-0.326-0.301-0.422-0.363
	c-0.198-0.13-0.34-0.315-0.552-0.364c-0.158-0.036-0.31-0.017-0.445-0.047c-0.386-0.084-0.679-0.284-1.009-0.445
	c-0.271,0.485-0.492,1.043-0.727,1.606c-0.214,0.514-0.474,1.149-0.575,1.759c-0.07,0.426-0.072,0.939-0.105,1.396
	c-0.016,0.212-0.032,0.457-0.047,0.703c-0.012,0.211-0.052,0.494,0.012,0.68c0.04,0.117,0.184,0.265,0.281,0.376
	c0.214,0.241,0.393,0.453,0.528,0.785c0.092,0.228,0.208,0.658-0.094,0.728c0.086,0.171-0.143,0.278-0.293,0.352
	c-0.113,0.055-0.244,0.115-0.353,0.129c-0.118,0.015-0.252-0.004-0.387,0.012c-0.116,0.015-0.238,0.046-0.352,0.047
	c-0.184,0.002-0.362-0.04-0.527-0.07c-0.176-0.032-0.357-0.099-0.505-0.094c-0.101,0.004-0.231,0.092-0.305,0.023
	c-0.06-0.088-0.001-0.186,0.023-0.27c0.153-0.538,0.412-0.994,0.657-1.489c0.039-0.08,0.104-0.169,0.117-0.234
	c0.016-0.091-0.014-0.207-0.012-0.316c0.001-0.095,0.01-0.193,0.012-0.282c0.002-0.191,0.037-0.45,0.012-0.621
	c-0.008-0.051-0.06-0.1-0.07-0.152c-0.036-0.169,0.012-0.386,0.012-0.587c0-0.196-0.01-0.393,0.012-0.586
	c-0.045-0.02-0.157,0.024-0.188-0.035c0.026-0.311,0.131-0.542,0.2-0.81c-0.051-0.031-0.156,0.031-0.2-0.023
	c0.248-0.781,0.259-1.762,0.259-2.803c0-0.334,0.044-0.698,0-1.008c-0.018-0.123-0.089-0.26-0.129-0.388
	c-0.121-0.378-0.214-0.806-0.212-1.302c-1.119-0.252-2.269-0.626-3.459-0.832c-1.347-0.233-2.496,0.21-3.683,0.434
	c-0.008,1.501-0.36,2.657-0.68,3.847c0.401,0.793,0.942,1.538,1.29,2.475c0.16,0.432,0.31,0.904,0.504,1.372
	c0.132,0.318,0.277,0.627,0.363,1.043c0.043,0.207,0.137,0.391,0.023,0.552c0.087,0.197,0.054,0.342,0.142,0.516
	c0.08,0.16,0.343,0.309,0.492,0.457c0.119,0.12,0.402,0.354,0.375,0.563c-0.019,0.143-0.256,0.254-0.41,0.316
	c-0.198,0.079-0.4,0.063-0.634,0.047c-0.195-0.014-0.483-0.009-0.691-0.035c-0.161-0.021-0.474-0.059-0.552-0.164
	c-0.079-0.108-0.066-0.34-0.059-0.516c0.008-0.167,0.033-0.379,0.094-0.481c0.121-0.205,0.357-0.19,0.527-0.328
	c-0.104-0.018-0.278,0.146-0.457,0.094c-0.09-0.871-0.279-1.554-0.715-2.099c-0.425-0.532-0.671-1.164-1.126-1.678
	c-0.161,0.044-0.33,0.107-0.457,0.035c-0.212-0.12-0.103-0.499-0.153-0.785c-0.045-0.025-0.148,0.054-0.211,0.012
	c-0.121-0.118-0.171-0.312-0.234-0.493c-0.03-0.087-0.066-0.182-0.094-0.27c-0.026-0.086-0.021-0.197-0.105-0.246
	c0.008-0.202-0.107-0.375-0.141-0.574c-0.016-0.047-0.118,0.014-0.164-0.023c-0.068-0.193-0.139-0.386-0.199-0.587
	c-0.235,0.389-0.414,0.837-0.621,1.278c-0.068,0.144-0.176,0.3-0.2,0.434c-0.03,0.168,0.007,0.435,0.07,0.575
	c0.094,0.203,0.262,0.396,0.388,0.609c0.119,0.203,0.254,0.406,0.352,0.634c0.201,0.467,0.443,0.956,0.375,1.56
	c0.2,0.511,0.42,1.003,0.516,1.618c0.174,0.138,0.265,0.343,0.446,0.551c0.06,0.068,0.342,0.31,0.34,0.435
	c-0.001,0.094-0.177,0.192-0.281,0.246c-0.188,0.096-0.374,0.158-0.587,0.117c-0.104,0.034-0.178,0.072-0.293,0.07
	s-0.201-0.076-0.281-0.082c-0.172-0.013-0.558,0.167-0.68-0.035c-0.085-0.14,0.022-0.465,0.059-0.622
	c0.021-0.099,0.037-0.204,0.059-0.305c0.021-0.104,0.068-0.215,0.07-0.293c0.001-0.095-0.052-0.236-0.082-0.352
	c-0.085-0.314-0.169-0.691-0.27-0.997c-0.289-0.872-0.693-1.53-1.221-2.181c-0.159-0.198-0.403-0.459-0.633-0.646
	c-0.07-0.057-0.198-0.143-0.211-0.211c-0.021-0.111,0.057-0.268,0.082-0.363c0.032-0.121,0.063-0.253,0.07-0.364
	c0.04-0.515,0.026-1.017,0.059-1.513c0.032-0.494-0.016-0.981-0.082-1.466c-0.064-0.471-0.117-0.932-0.117-1.454
	c0-1.027-0.319-1.754-0.715-2.427c-0.198-0.337-0.393-0.667-0.61-0.962c-0.45-0.611-0.981-1.149-1.243-1.889
	c0.177-0.322,0.327-0.607,0.387-1.02c0.02-0.129-0.012-0.269,0.012-0.422c0.021-0.135,0.154-0.255,0.223-0.353
	c0.08-0.112,0.2-0.227,0.247-0.328c0.043-0.095,0.05-0.205,0.082-0.293c0.228-0.631,0.599-1.12,1.056-1.548
	c0.495-0.465,1.059-0.871,1.724-1.243c0.905-0.507,1.954-1.055,3.213-1.243c0.433-0.064,0.856-0.177,1.302-0.176
	c0.275,0,0.453,0.111,0.645,0.199c0.149,0.068,0.297,0.113,0.435,0.188c0.38,0.207,0.783,0.449,1.267,0.575
	c0.633,0.164,1.412,0.204,2.157,0.293c1.213,0.144,2.567,0.307,3.8,0.492c0.184,0.028,0.39,0.092,0.527,0.082
	c0.083-0.005,0.231-0.076,0.352-0.117c0.582-0.196,1.146-0.396,1.865-0.445c0.294-0.021,0.587,0,0.855-0.07
	c0.113-0.03,0.269-0.128,0.411-0.199c0.823-0.415,1.576-0.802,2.368-1.267c0.131-0.077,0.293-0.16,0.364-0.234
	c0.114-0.12,0.159-0.341,0.281-0.458c-0.33,0.031-0.636,0.207-0.962,0.164c-0.036-0.078,0.068-0.108,0.094-0.164
	C31.472,15.889,31.074,16.098,30.626,16.057z"/>
</svg>
