<?xml version="1.0" encoding="iso-8859-1"?>
<!-- Generator: Adobe Illustrator 15.0.0, SVG Export Plug-In . SVG Version: 6.00 Build 0)  -->
<!DOCTYPE svg PUBLIC "-//W3C//DTD SVG 1.1//EN" "http://www.w3.org/Graphics/SVG/1.1/DTD/svg11.dtd">
<svg version="1.1" id="Layer_1" xmlns="http://www.w3.org/2000/svg" xmlns:xlink="http://www.w3.org/1999/xlink" x="0px" y="0px"
	 width="48px" height="40px" viewBox="0 0 48 40" style="enable-background:new 0 0 48 40;" xml:space="preserve">
<path style="fill-rule:evenodd;clip-rule:evenodd;fill:#FFFFFF;" d="M-547-419c1.848,2.566,1.399,11.361,0,14
	c-3.213,0.88-1.37-3.296-4-3c6.77,13.223-6.539,17.999-18,19c0.479-3.146-1.424-3.909-2-6c-2.934,0.85,1.301,2.517,0,5
	c-3.589,0.589-4.838-1.162-7-2c2.958-5.375,7.676-8.991,8-17C-563.903-413.903-551.191-412.191-547-419z"/>
<path style="fill-rule:evenodd;clip-rule:evenodd;fill:#314338;" d="M47.209,37.669c-0.047-0.116-0.152-0.139-0.229-0.217
	c-0.102-1.692-0.508-3.187-0.964-4.545c-0.063-0.191-0.192-0.4-0.218-0.57c-0.038-0.276,0.039-0.584,0.068-0.867
	c0.064-0.618,0.238-2.809-0.148-2.891c0.111-0.326-0.197-0.473-0.367-0.624c-0.4-0.357-0.738-0.767-0.977-1.262
	c-0.285-0.591-0.323-1.883-0.177-2.659c0.078-0.413,0.2-0.783,0.325-1.153c0.13-0.381,0.221-0.761,0.354-1.14
	c0.124-0.353,0.262-0.72,0.38-1.112c0.112-0.378,0.247-0.844,0.218-1.275c-0.038-0.526-0.224-1.185-0.774-1.167
	c-0.122,0.004-0.094,0.079-0.284,0.095c-0.216,0.019-0.495-0.151-0.746-0.23c-0.548-0.174-0.727-0.54-1.1-0.854
	c-0.177-0.148-0.379-0.268-0.584-0.395c-0.395-0.244-0.8-0.504-1.18-0.772c-0.195-0.139-0.867-0.44-0.963-0.502
	c-0.102-0.064-1.48-0.562-1.615-0.488c-3.702-0.612-7.623-1.006-11.18-1.764c-0.071-0.204-0.228-0.305-0.353-0.435
	c-0.083-0.086-0.15-0.175-0.217-0.285c-0.121-0.201-1.557-0.652-2.09-0.742c-0.44-0.074-0.885-0.141-1.261-0.177
	c-0.734-0.068-1.467-0.033-2.008,0.109c-0.192,0.05-0.376,0.122-0.57,0.149c-0.859,0.119-1.34,0.547-1.914,0.949
	c-0.28,0.196-0.841,0.207-0.841,0.207s-0.791,0.016-1.004,0.358c-0.632-0.028-1.175,0.2-1.818,0.298
	c-0.382,0.058-0.785,0.143-1.153,0.204c-0.135,0.022-1.688,0.069-1.803,0.067c-0.188-0.003,1.339-0.964,1.601-1.924
	s0.499-3.21,0.71-5.045c1.24-0.504,1.904-2.349,3.145-3.324c0.911-0.716,3.238-0.814,2.246-2.266c-0.352,0.826-1.42,1.3-2.7,1.668
	c-0.531-0.877,0.079-2.367-1.065-2.402c0.73,2.611-0.446,4.283-2.682,5.43C12.57,5.522,12.4,3.849,11.906,2.835
	c0,0,0.628,4.826,0.548,5.317c-0.656,0.444-0.561-0.637-1.13-0.37c2.461,2.39,0.708,4.525-1.727,5.65
	c-0.074,0.033-0.148,0.067-0.221,0.1c-0.005-0.034-0.013-0.066-0.021-0.097c1.965-1.493,2.068-4.341,2.068-4.051
	c0,0.806-2.106,3.857-3.232,3.981c-1.126,0.124-0.372,0.221-0.922,0.198c0.256-1.438,0.235-2.727-0.304-4.556
	c3.906-4.055,4.094-5.5,4.094-5.5c-1.41,1.32-3.948,4.705-4.403,3.847C5.669,6.773,6.739,4.838,5.588,4.199
	C5.433,5.311,5.702,6.633,5.53,7.736C4.704,7.268,4.759,5.164,4.312,4.882c-1.75,1.659,4.358,8.108-0.184,8.353
	c-0.95,0.051-1.16-1.149-2.115-1.795c0.239,2.555,2.032,1.965,3.024,2.995c-1.831,0.796-3.412,1.084-4.587,0.549
	c0.697,2.388,3.888-0.298,5.116,1.013c-0.006,0.166,0.038,0.329,0.076,0.483c-0.02,0.128-0.04,0.257-0.059,0.385
	c-0.116,0.758-0.227,1.456-0.256,1.539c-0.033,0.096-0.033,0.184-0.082,0.271c-0.048,0.086-0.077,0.177-0.123,0.244
	c-0.048,0.071-1.895,6.287-1.492,6.571c0.122,0.086,0.286,0.239,0.449,0.271c0.33,0.066,0.513,0.016,0.433-0.274
	c0.037-0.112,0.727,0.063,1.328-0.298c0.231-0.139,0.578-0.691,0.461-1.043c0.398-0.605,2.512-0.785,2.831-1.496
	c0.094-0.209,0.956-0.587,1.118-0.651c0.085-0.033,0.205,0.005,0.326,0.014c0.12,0.009,0.266-0.005,0.38,0
	c0.635,0.029,1.044-0.183,1.561-0.313c0.113-0.028,0.448-0.263,0.515-0.285c0.089-0.029,0.295,0.021,0.447,0.027
	c0.342,0.016,0.605,0.037,0.882,0.081c0.296,0.048,0.679,0.17,0.991,0.164c0.1-0.003,0.184-0.049,0.271-0.055
	c0.19-0.012,0.348,0.046,0.542,0.055c0.445,0.567,0.768,1.258,1.126,1.912c0.014,0.656,0.476,0.98,0.638,1.533
	c-0.112,0.246-0.195,0.536-0.258,0.827c-0.021,0.098-0.022,0.219-0.054,0.313c-0.039,0.112-0.167,0.229-0.245,0.354
	c-0.19,0.304-0.295,0.72-0.379,1.111c-0.053,0.24-0.075,0.329-0.177,0.489c-0.147,0.232-0.264,0.437-0.353,0.719
	c-0.112,0.357-0.268,0.688-0.367,1.071c-0.095,0.371-0.238,0.723-0.339,1.086c-0.104,0.373-0.212,0.746-0.312,1.126
	c-0.102,0.393-0.191,0.767-0.312,1.112c-0.117,0.335-0.313,0.647-0.475,0.963c-0.234,0.46-0.537,0.909-0.827,1.316
	c-0.103,0.143-0.198,0.315-0.299,0.421c-0.111,0.117-0.236,0.171-0.245,0.34c-0.008,0.188,0.076,0.263,0.204,0.339
	c-0.579,0.539-1.369,1.056-1.967,1.655c-0.148,0.148-0.529,0.418-0.529,0.678c0,0.312,0.365,0.377,0.569,0.19
	c0.435,0.227,1.11,0.335,1.792,0.284c0.293-0.021,0.583-0.107,0.84-0.189c0.271-0.086,0.564-0.178,0.746-0.298
	c0.228-0.15,0.327-0.508,0.136-0.72c0.244-0.41,0.608-0.734,0.57-1.33c-0.006-0.077-0.044-0.137-0.042-0.217
	c0.004-0.082,0.072-0.19,0.109-0.298c0.247-0.724,0.501-1.479,0.732-2.144c0.364,0.294,0.546-0.2,0.706-0.476
	c0.737-1.272,1.421-2.484,2.13-3.73c0.154-0.271,0.354-0.524,0.339-0.828c0.33-0.385,0.667-0.776,1.004-1.166
	c0.249-0.289,0.577-0.531,0.854-0.773c0.094-0.082,0.175-0.195,0.299-0.23c0.282,1.757,0.599,3.675,0.896,5.48
	c0.06,0.363,0.042,0.883,0.42,0.801c0.051,0.953,0.041,2.07,0.082,3.053c0.015,0.354,0.072,0.733,0.027,1.03
	c-0.013,0.084-0.094,0.197-0.095,0.3c-0.002,0.101,0.07,0.169,0.095,0.257c-0.118,0.168-0.246,0.3-0.408,0.462
	c-0.12,0.119-0.345,0.321-0.353,0.515c-0.002,0.066,0.035,0.092,0.082,0.204c0.04,0.093,0.026,0.159,0.082,0.203
	c0.1,0.082,0.409,0.077,0.623,0.095c0.435,0.038,0.851,0.086,1.235,0.122c0.208,0.021,0.498,0.068,0.624,0.015
	c0.239-0.103,0.19-0.461-0.027-0.557c0.025-0.138-0.034-0.272-0.055-0.407c0.101-0.195,0.019-0.422-0.013-0.651
	c-0.066-0.479-0.117-0.959-0.19-1.397c0.064-0.059,0.045-0.127,0.095-0.189c0.067-0.086,0.173-0.097,0.217-0.19
	c0.06-0.134,0.05-0.397,0.067-0.624c0.106-1.337,0.195-2.616,0.299-3.921c0.018-0.229,0.063-0.473,0.041-0.664
	c-0.009-0.067-0.056-0.125-0.068-0.204c-0.059-0.37,0.045-0.882,0-1.234c0.176-0.239,0.17-0.661,0.189-1.086
	c0.016-0.332-0.034-0.717,0.041-0.963c0.035-0.114,0.146-0.195,0.135-0.313c0.223-0.013,0.44-0.261,0.679-0.312
	c0.102-0.021,0.205,0.002,0.285-0.055c0.089-0.062,0.112-0.164,0.136-0.271c0.476-0.243,1.013-0.448,1.547-0.639
	c0.177-0.063,0.39-0.113,0.529-0.203c0.062-0.039,0.103-0.124,0.163-0.163c0.256-0.166,0.607-0.157,0.786-0.42
	c0.227,0.136,0.341-0.146,0.435-0.176c0.105-0.035,0.304,0.016,0.434,0.04c0.711,0.129,1.316,0.313,1.9,0.515
	c0.746,0.26,1.762,0.174,2.564,0.326c0.555,0.105,1.078,0.206,1.601,0.325c0.185,0.677,0.728,1.234,0.949,1.913
	c0.048,0.146,0.067,0.299,0.122,0.448c0.102,0.276,0.268,0.525,0.367,0.787c0.116,0.31,0.233,0.718,0.339,1.044
	c0.036,0.116,0.106,0.27,0.108,0.354c0.002,0.094-0.064,0.17-0.054,0.271c0.013,0.115,0.108,0.154,0.122,0.245
	c0.014,0.096-0.035,0.304-0.055,0.461c-0.057,0.479-0.126,0.943-0.217,1.356c-0.385,1.737-0.742,3.502-1.127,5.143
	c-0.432-0.041-0.75,0.037-0.705,0.394c0.042,0.328,0.448,0.284,0.828,0.284c0.631,0,1.696,0.077,1.75-0.393
	c0.012-0.107-0.068-0.21-0.068-0.299c0-0.115,0.099-0.327,0.149-0.489c0.056-0.176,0.095-0.364,0.136-0.501
	c0.039-0.131,0.106-0.232,0.096-0.354c-0.015-0.139-0.119-0.182-0.19-0.284c0.155-0.646,0.329-1.272,0.487-1.913
	c0.299-0.039,0.359-0.517,0.436-0.801c0.217-0.812,0.433-1.637,0.61-2.388c0.108-0.057,0.244-0.119,0.271-0.244
	c0.024-0.111-0.029-0.22-0.04-0.325c-0.037-0.372,0.058-0.799,0.108-1.208c0.053-0.426,0.057-0.84,0.094-1.221
	c0.871,1.214,1.725,2.446,2.361,3.894c-0.238,0.215-0.084,0.565,0.163,0.61c0.032,0.723,0.276,1.38,0.407,2.117
	c0.09,0.506,0.188,1.098,0.271,1.613c0.029,0.182,0.107,0.396,0.095,0.543c-0.009,0.095-0.088,0.177-0.081,0.285
	c0.029,0.424,0.703,0.371,1.1,0.447c0.159,0.031,0.326,0.048,0.475,0.068c0.166,0.023,0.332,0.074,0.461,0.081
	C47.021,38.193,47.343,38.005,47.209,37.669z"/>
</svg>
