<svg xmlns="http://www.w3.org/2000/svg" xmlns:xlink="http://www.w3.org/1999/xlink" width="62" height="48" viewBox="0 0 62 48">
  <defs>
    <clipPath id="clip-heavy_game">
      <rect width="62" height="48"/>
    </clipPath>
  </defs>
  <g id="heavy_game" data-name="heavy game" clip-path="url(#clip-heavy_game)">
    <rect width="62" height="48" fill="#f3f8f4"/>
    <path id="Union-1" d="M12.184,15.315c.077.006,2.558,1.366,4.379,2.547a14.918,14.918,0,0,1,1.474,1.1,1.094,1.094,0,0,1,.514.66,2.212,2.212,0,0,1-.031,1.22,36.026,36.026,0,0,1-3.488,4.3c-1.928,1.521-4.739,3.329-4.774,3.341l-.01.02-.058.01a.324.324,0,0,1-.217.038q-.075.02-.154.034l-.056.039a3.268,3.268,0,0,1-.5.03H9.105c-.17,0-4.322-.013-4.485-.015-.356-.005-.42-.022-.54-.135h0l0,0-.059-.058,0-.044-.006-.012a8.973,8.973,0,0,1,.451-1.362,3.131,3.131,0,0,1,.286-.288l.443-.364,1.242-.515.1-.027c.03-.008.561-.256,1.039-.523a9.317,9.317,0,0,0,1.55-1.98,44.094,44.094,0,0,0,2.59-5.376c.01-.062.026-.124.05-.216l0,0q.026-.114.051-.23c.013-.06.026-.119.039-.181l.015-.074c.022-.215.04-.43.057-.645l0-.026c0-.048,0-.1.008-.161,0-.007,0-.013,0-.02s0-.026,0-.038l0-.08.009.01a.912.912,0,0,1,.09-.212q.028-.146.055-.293l.025-.137.025-.136C12.157,15.458,12.169,15.4,12.184,15.315ZM25.557,1.067a10.259,10.259,0,0,0,3.633.077c.328-.055,3.659-.465,4.142-.493a17.475,17.475,0,0,1,9.855,2.431,10.669,10.669,0,0,1,3.138,2.576c1.806,2.262,1.922,6.729,2,7.165.01.059.021.117.032.177s.019.108.028.165.013.071.025.143c0,.016,0,.032,0,.047.032.188.062.376.088.564a13.937,13.937,0,0,0,.257,3.959,13.08,13.08,0,0,0,2.119,3.907c.055.062.106.132.163.211l.132.177.025.044.108.148c.04.056,1.081,1.8.78,2.712a7.853,7.853,0,0,1-2.872,3.272l-.018.014-.055.024a2.151,2.151,0,0,1-.594.2l-.158.016-.124.014c-.122.009-3.441,0-3.525-.028h0l-.014,0-.015,0-.037-.012v0a.986.986,0,0,1-.121-.057h0l-.006-.01c-.1-.148-.122-.193-.112-.315a1.35,1.35,0,0,1,.022-.2l.012-.044a.48.48,0,0,1,.02-.064v0a1.94,1.94,0,0,1,.528-.815q.073-.07.151-.134l.05-.046,0,0a2.571,2.571,0,0,1,.219-.15,1,1,0,0,1,.2-.082l.137-.063-.019-.009.23-.081c.167-.068.337-.128.513-.18a.554.554,0,0,0,.284-.284h.06a.632.632,0,0,0,.063-.119c0-.043,0-.087,0-.132,0,0,0,0,0-.007a1.767,1.767,0,0,0-.586-1.475A19.274,19.274,0,0,0,42.907,22.3l-.081-.07-.092-.077c-.062-.059-.123-.119-.181-.181h.181l.012-.012c.039-.041.064-.067.086-.091s.356-.5.383-.539l0-.023h.014A11.93,11.93,0,0,0,45.4,18.329,18.209,18.209,0,0,0,46.786,13.8h0q0-.154,0-.3h0c-.014.053-.029.1-.045.159q-.032.108-.066.215l-.01.05h0L46.65,14a18.585,18.585,0,0,1-1.642,4.18A14.667,14.667,0,0,1,42.491,21.3v0a2.422,2.422,0,0,1-.23.378l-.134.2-.062.078,0,.012-.014,0c-.1.162-.2.326-.291.493-.039.081-2.069,4.84-2.111,4.937l0,.01h0q-.024.055-.049.108a2.773,2.773,0,0,1-.219.4c-.05.168-.106.21-.269.329-.022.022-.045.043-.069.064h0l-.011.007a1.923,1.923,0,0,1-.221.167l-.01.008-.033.011a1.115,1.115,0,0,1-.22.047c-.136.026-6.732.071-6.9.04l-.013,0a1.641,1.641,0,0,1-.184-.046l-.031-.01a1.519,1.519,0,0,1-.244-.107h0a.4.4,0,0,1-.041-.242,1.547,1.547,0,0,1,.644-1.277A6.419,6.419,0,0,1,34,26.241a1.917,1.917,0,0,0,.193-.063l.049-.025a1,1,0,0,0,.475-.443,1.577,1.577,0,0,0,.1-.37c0-.065-.467-4.661-.49-4.822h0l0-.037-.021-.153v-.006l-.013-.092v-.007c0-.017,0-.035-.007-.052q-.014-.1-.027-.2-.024-.18-.047-.361h0l0-.028a11.172,11.172,0,0,1-.339-2.823,12.826,12.826,0,0,1,.522-2.95l0-.006h0a1.1,1.1,0,0,0-.18.091v.03l-.025-.013a.487.487,0,0,0-.118.124,14.578,14.578,0,0,0-.62,2.906,9.209,9.209,0,0,0,.15,2.431q0,.054.006.107t0,.078c0,.058,0,.117,0,.176a.872.872,0,0,0,.12.12.237.237,0,0,1-.124.067h0a.779.779,0,0,1-.217.009c-.041,0-.081,0-.118,0-.151,0-.3,0-.45-.01h-.039c-.329-.011-2.513-.209-2.888-.27a1.518,1.518,0,0,1-.691-.271,11.238,11.238,0,0,1-.631-2.118A24.39,24.39,0,0,0,27.4,14.465l-.012-.023a.842.842,0,0,1-.117-.236l-.073-.1-.013,0,0-.017-.015-.019a.767.767,0,0,1-.163-.206v-.079c0-.012,0-.026,0-.042h-.121l-.121-.121.033.135.027.106.121.06,0,.006a2.012,2.012,0,0,1,.091.188c.034.073.067.147.1.222l.053.117a1.537,1.537,0,0,1,.1.258l.019.046a20.509,20.509,0,0,1,.944,2.977,14.994,14.994,0,0,1,.309,2.912,39.836,39.836,0,0,1-.706,5.083,7.306,7.306,0,0,1-.645,1.573q-.03.053-.062.106-.045.074-.092.146a3.705,3.705,0,0,1-.655.764,1.766,1.766,0,0,1-.164.1.44.44,0,0,1-.181.08q-.069.026-.138.045v.021a4.513,4.513,0,0,1-.92.07l-4.572.006h-.155A1.768,1.768,0,0,1,19.5,28.5c-.08-.021-.161-.042-.242-.06h0c0-.01,0-.02,0-.03a2.449,2.449,0,0,1,.854-1.675,2.4,2.4,0,0,1,.9-.364c.243-.055,1.227.023,1.576-.35.332-.354.026-1.16,0-1.259a9.055,9.055,0,0,0-1.267-3.1,13.875,13.875,0,0,0-3.011-2.987c-1.373-.908-4.169-2.73-5.031-3.157a5.661,5.661,0,0,0-3.332-.847c-.394.055-2.5.765-3.1.769a6.167,6.167,0,0,1-1.255-.225l-.08-.007c-.107,0-.214.007-.319.018l-.047.008a13.089,13.089,0,0,1-1.255.42,5.7,5.7,0,0,1-1.183.119,1.75,1.75,0,0,1-.314-.03,7.441,7.441,0,0,0-.878-.978,3.455,3.455,0,0,0-.954-.482h0l-.01-.01C.369,14.084.3,14.014.28,13.944l-.014-.021V13.8H.146q-.024-.048-.044-.1a1.319,1.319,0,0,1-.064-.19q-.008-.032-.014-.064a.951.951,0,0,1-.009-.376q0-.03.01-.061a1.816,1.816,0,0,1,.356-.393c.05-.048,1.9-2.027,2.019-2.154l.114-.129c.034-.032.058-.054.079-.071A1.566,1.566,0,0,0,2.88,9.5c0-.042,0-.085,0-.129,0-.114,0-.229.005-.344A1.966,1.966,0,0,1,2.994,8.4L3,8.387l-.011-.029a2.064,2.064,0,0,1,.117-.19l0,0q.027-.045.058-.089A4.9,4.9,0,0,1,3.5,7.594l.1-.126.043-.056c.05-.076.107-.151.17-.23l.075-.1a1.41,1.41,0,0,1,.19-.241h0C5.467,5.048,5.6,4.96,6.6,4.591a.891.891,0,0,1,.083-.044l.051-.022a.439.439,0,0,0,.106-.14c.005-.022.011-.049.018-.081h.016A2.018,2.018,0,0,1,8.214,3.093a1.462,1.462,0,0,1,1.913.544v0l0,0a2.752,2.752,0,0,1,.116.279,2.828,2.828,0,0,1,.064.322h0q0,.019,0,.038a2.85,2.85,0,0,1-.134,1.279c0,.035.008.07.01.107a1.016,1.016,0,0,0,.412-.382q.04-.064.074-.134h0l.008-.015a9.212,9.212,0,0,0-.136-1.561l0-.006c-.015-.03-.025-.052-.033-.072l-.021-.04v-.11c0-.02,0-.044,0-.072h0c.127-.074.18-.1.243-.1l.179-.076h0l.006,0c.14-.058,4.294-1.626,6.423-2.428a12.145,12.145,0,0,1,2.892-.838C22.594-.361,25.21.988,25.557,1.067Zm1.569,13.219-.06-.121h.121ZM34.539,13.1a1.118,1.118,0,0,1-.069.107.174.174,0,0,1-.024.028v.019l-.068.023-.113.34,0,.013a.764.764,0,0,0,0,.115h0v-.067h.181l.016-.037a.832.832,0,0,1,.03-.25l.037-.16.039-.157.012-.056Z" transform="translate(4.93 9.769)" fill="#314338"/>
  </g>
</svg>
