<?xml version="1.0" encoding="iso-8859-1"?>
<!-- Generator: Adobe Illustrator 15.0.0, SVG Export Plug-In . SVG Version: 6.00 Build 0)  -->
<!DOCTYPE svg PUBLIC "-//W3C//DTD SVG 1.1//EN" "http://www.w3.org/Graphics/SVG/1.1/DTD/svg11.dtd">
<svg version="1.1" id="Layer_1" xmlns="http://www.w3.org/2000/svg" xmlns:xlink="http://www.w3.org/1999/xlink" x="0px" y="0px"
	 width="48px" height="40px" viewBox="0 0 48 40" style="enable-background:new 0 0 48 40;" xml:space="preserve">
<path style="fill:#314338;" d="M8.866,19.555c-1.993,0-3.61,1.618-3.61,3.61c0,1.996,1.617,3.613,3.61,3.613
	c1.995,0,3.612-1.617,3.612-3.613C12.479,21.173,10.861,19.555,8.866,19.555z M8.866,24.946c-0.983,0-1.78-0.797-1.78-1.781
	c0-0.982,0.797-1.779,1.78-1.779c0.984,0,1.781,0.797,1.781,1.779C10.647,24.149,9.851,24.946,8.866,24.946z"/>
<path style="fill:#314338;" d="M15.844,18.461c-0.139-1.693-0.709-2.247-2.047-2.582c-1.339-0.334-1.87-0.6-2.105-2.214
	c-0.236-1.614,0.255-4.234-2.874-4.234s-2.538,2.59-2.774,4.125s-0.689,1.932-2.5,2.247c-1.81,0.314-1.81,2.503-1.81,2.503L1.812,31
	h14.032C15.844,31,15.894,20.133,15.844,18.461z M8.866,27.997c-2.667,0-4.831-2.162-4.831-4.832c0-2.666,2.164-4.829,4.831-4.829
	c2.669,0,4.832,2.163,4.832,4.829C13.698,25.835,11.535,27.997,8.866,27.997z"/>
<path style="fill:#314338;" d="M24.452,19.555c-1.993,0-3.61,1.618-3.61,3.61c0,1.996,1.617,3.613,3.61,3.613
	c1.995,0,3.612-1.617,3.612-3.613C28.064,21.173,26.447,19.555,24.452,19.555z M24.452,24.946c-0.983,0-1.78-0.797-1.78-1.781
	c0-0.982,0.797-1.779,1.78-1.779c0.984,0,1.782,0.797,1.782,1.779C26.234,24.149,25.437,24.946,24.452,24.946z"/>
<path style="fill:#314338;" d="M31.43,18.461c-0.139-1.693-0.709-2.247-2.047-2.582c-1.338-0.334-1.87-0.6-2.105-2.214
	c-0.236-1.614,0.256-4.234-2.873-4.234c-3.13,0-2.539,2.59-2.775,4.125s-0.688,1.932-2.499,2.247s-1.811,2.503-1.811,2.503
	L17.398,31H31.43C31.43,31,31.479,20.133,31.43,18.461z M24.452,27.997c-2.667,0-4.831-2.162-4.831-4.832
	c0-2.666,2.164-4.829,4.831-4.829c2.669,0,4.832,2.163,4.832,4.829C29.284,25.835,27.121,27.997,24.452,27.997z"/>
<path style="fill:#314338;" d="M39.934,19.555c-1.994,0-3.611,1.618-3.611,3.61c0,1.996,1.617,3.613,3.611,3.613
	s3.611-1.617,3.611-3.613C43.545,21.173,41.928,19.555,39.934,19.555z M39.934,24.946c-0.983,0-1.78-0.797-1.78-1.781
	c0-0.982,0.797-1.779,1.78-1.779c0.984,0,1.781,0.797,1.781,1.779C41.715,24.149,40.918,24.946,39.934,24.946z"/>
<path style="fill:#314338;" d="M46.91,18.461c-0.138-1.693-0.708-2.247-2.047-2.582c-1.338-0.334-1.869-0.6-2.105-2.214
	s0.256-4.234-2.873-4.234s-2.539,2.59-2.774,4.125c-0.236,1.535-0.689,1.932-2.499,2.247c-1.811,0.314-1.811,2.503-1.811,2.503
	L32.879,31H46.91C46.91,31,46.961,20.133,46.91,18.461z M39.934,27.997c-2.668,0-4.831-2.162-4.831-4.832
	c0-2.666,2.163-4.829,4.831-4.829s4.832,2.163,4.832,4.829C44.766,25.835,42.602,27.997,39.934,27.997z"/>
</svg>
