<svg width="305" height="58" viewBox="0 0 305 58" fill="none" xmlns="http://www.w3.org/2000/svg">
<g clip-path="url(#clip0_190_479)">
<path d="M247.907 24.5051L247.892 42.2144L242.112 42.1995V13.9625H249.584L255.562 28.4142V13.9625H261.311V42.1995L255.181 42.2144L247.907 24.5051Z" fill="white"/>
<path d="M173.17 27.9699C173.17 25.8377 173.155 23.7203 173.17 21.5881C173.186 17.2792 176.571 13.533 180.841 13.074C185.553 12.5706 189.685 15.3987 190.692 19.7964C190.89 20.67 190.875 21.8398 190.875 21.8398V22.7578H185.126C185.126 22.7578 185.171 21.2919 185.019 20.7737C184.592 19.3078 183.235 18.4342 181.603 18.5971C180.154 18.7451 178.904 20.0037 178.904 21.4548C178.874 25.8377 178.874 30.2058 178.904 34.5887C178.919 36.2175 180.353 37.5205 182.03 37.5056C183.692 37.4909 185.08 36.2175 185.141 34.6183C185.171 33.8631 185.156 31.9234 185.156 31.9234L182.03 31.9382V26.3115H190.89C190.89 26.3115 190.905 32.2639 190.859 35.0033C190.783 38.8976 187.261 42.4956 183.265 42.9991C178.721 43.5766 174.39 40.7188 173.384 36.3952C173.231 35.7289 173.17 35.0625 173.17 34.3962C173.186 32.2639 173.17 30.1169 173.17 27.9699Z" fill="white"/>
<path d="M80.6685 13.9624C80.3482 14.5991 80.0585 15.1618 79.7687 15.7097C77.8168 19.4411 73.7301 27.4221 73.7301 27.4221L81.8121 42.1995H75.3007L74.9957 41.6813L68.2861 29.1249L68.2708 42.1995H62.5524V13.9476H68.2861L68.2708 25.4675L74.279 13.9476C74.2638 13.9476 78.6861 13.9624 80.6685 13.9624Z" fill="white"/>
<path d="M39.6938 27.5998C39.7548 25.6304 39.587 23.1873 39.77 20.7441C40.1055 16.3464 44.36 12.7631 48.9196 13.0296C53.9061 13.3257 57.4439 16.9979 57.4439 21.8398C57.4439 22.4913 57.4439 24.2237 57.4439 24.2237H51.6644C51.6644 24.2237 51.6644 22.21 51.6187 21.44C51.5577 19.8112 50.2462 18.6119 48.5841 18.5971C46.9219 18.5822 45.4732 19.826 45.458 21.4252C45.4275 25.8377 45.4275 30.265 45.458 34.6775C45.4732 36.2618 46.8762 37.5056 48.5078 37.5056C50.1852 37.5056 51.5424 36.2618 51.6034 34.6479C51.6339 33.8927 51.6492 31.8642 51.6492 31.8642L57.4286 31.879C57.4286 31.879 57.5354 35.2994 57.0626 36.8542C55.9037 40.6744 52.1066 43.3248 48.1113 43.088C43.8416 42.8362 40.4105 39.86 39.7853 35.8029C39.5413 34.2185 39.6785 32.6045 39.6633 31.0054C39.6938 30.0429 39.6938 29.0509 39.6938 27.5998Z" fill="white"/>
<path d="M266.404 28.0735C266.404 23.587 266.389 13.9772 266.389 13.9772H280.799V19.5595H272.473L272.489 25.2158L280.799 25.2306V30.8573H272.504V36.6024L280.799 36.5877V42.1995H266.404C266.404 42.2144 266.404 32.5898 266.404 28.0735Z" fill="white"/>
<path d="M82.6356 13.9773L88.8573 13.9625C88.8573 13.9625 92.5324 24.9937 92.7001 25.4676C93.0813 24.3423 96.6039 13.9625 96.6039 13.9625C96.6039 13.9625 100.813 13.9773 102.734 13.9773C102.139 15.4876 101.575 16.9535 100.996 18.4046C99.2268 22.8319 95.6127 32.0863 95.6127 32.0863L95.628 42.1995H89.818V32.0863L82.6356 13.9773Z" fill="white"/>
<path d="M0 13.9625H5.9777L5.99295 36.6321L14.4258 36.6025V42.1995H0V13.9625Z" fill="white"/>
<path d="M300.013 30.8276C300.013 30.8276 300.242 30.5908 300.425 30.4723C303.002 28.7399 304.359 26.3115 304.481 23.2909C304.68 18.2565 300.44 14.0217 295.225 13.9773C292.328 13.9476 285.862 13.9624 285.862 13.9624C285.862 13.9624 285.877 23.5426 285.877 28.0292C285.877 32.5453 285.862 42.1995 285.862 42.1995H291.611V32.0271H294.326L298.855 42.1995L305 42.1847L300.013 30.8276ZM298.778 23.2613C298.656 25.0233 297.147 26.43 295.317 26.4744C294.234 26.504 291.611 26.4892 291.611 26.4892V19.5447C291.611 19.5447 294.448 19.4559 295.698 19.6187C297.543 19.8556 298.9 21.4844 298.778 23.2613Z" fill="white"/>
<path d="M17.1096 24.9048C17.1096 21.4992 17.0944 13.9772 17.0944 13.9772H22.8586C22.8586 13.9772 22.8434 27.8367 22.8434 34.411C22.8434 35.9065 23.6363 37.017 24.9935 37.4464C26.8082 38.0091 28.7448 36.8393 28.9888 35.0033C29.0345 34.6775 29.0498 34.3369 29.0498 33.9964C29.0498 27.5553 29.0345 14.0217 29.0345 14.0217H34.814C34.814 14.0217 34.8293 27.8663 34.7988 34.5294C34.7835 39.1937 31.1237 42.8806 26.3202 43.1619C21.6082 43.4284 17.2774 39.6675 17.1554 35.0625C17.0639 31.6717 17.1401 28.2956 17.1401 24.9048C17.1249 24.9048 17.1096 24.9048 17.1096 24.9048Z" fill="white"/>
<path d="M223.767 24.5051V42.2144L217.988 42.1995V13.9625H225.46L231.438 28.4142L231.422 13.9625H237.187V42.1995L231.041 42.2144L223.767 24.5051Z" fill="white"/>
<path d="M195.114 24.8901C195.114 21.4845 195.099 13.9625 195.099 13.9625H200.863C200.863 13.9625 200.848 27.8218 200.848 34.3962C200.848 35.8917 201.641 37.0022 202.998 37.4317C204.812 37.9944 206.749 36.8246 206.993 34.9885C207.039 34.6627 207.054 34.3222 207.054 33.9816C207.054 27.5406 207.039 14.0069 207.039 14.0069H212.818C212.818 14.0069 212.834 27.8515 212.803 34.5147C212.788 39.1789 209.128 42.8659 204.325 43.1472C199.613 43.4137 195.282 39.6527 195.16 35.0477C195.068 31.6569 195.144 28.2809 195.144 24.8901C195.129 24.8901 195.114 24.8901 195.114 24.8901Z" fill="white"/>
</g>
<g clip-path="url(#clip1_190_479)">
<path d="M156.352 29.0229C156.337 40.9677 146.838 50.5174 135.005 50.5021C123.262 50.4869 113.823 40.8151 113.838 28.8246C113.853 17.0476 123.473 7.42165 135.201 7.45216C146.898 7.48267 156.383 17.1544 156.352 29.0229Z" fill="#F2EA27"/>
<path fill-rule="evenodd" clip-rule="evenodd" d="M145.408 18.5426C147.591 18.268 149.216 19.1071 150.27 21.075C151.324 23.0429 151.113 24.8735 149.623 26.5668C149.036 27.2381 148.072 27.5737 146.763 27.5737C145.453 27.5737 144.098 27.5432 142.728 27.4669C141.523 27.3906 140.319 27.4059 139.115 27.5126C138.076 27.6194 137.549 28.1076 137.549 28.9924C137.549 29.8314 138.076 30.3196 139.115 30.4416C140.319 30.5637 141.523 30.5789 142.728 30.4874C144.098 30.3959 145.438 30.3501 146.763 30.3501C148.087 30.3501 149.036 30.6857 149.623 31.3569C151.113 33.0808 151.324 34.9266 150.27 36.8793C149.216 38.832 147.591 39.6862 145.408 39.4422C145.648 41.6542 144.805 43.3017 142.878 44.3848C140.951 45.4679 139.145 45.2239 137.444 43.6678C136.781 43.1034 136.45 42.1423 136.45 40.7846C136.45 39.4269 136.495 38.0692 136.586 36.681C136.676 35.4606 136.661 34.2402 136.54 33.035C136.42 31.9824 135.938 31.4485 135.11 31.4485C134.237 31.4485 133.755 31.9824 133.65 33.035C133.545 34.2554 133.53 35.4758 133.62 36.681C133.71 38.0539 133.74 39.4269 133.725 40.7846C133.71 42.1423 133.379 43.1034 132.762 43.6678C131.061 45.2239 129.239 45.4527 127.297 44.3848C125.355 43.317 124.527 41.6694 124.798 39.4422C122.615 39.6862 120.974 38.832 119.905 36.8793C118.836 34.9266 119.062 33.0808 120.583 31.3569C121.17 30.6857 122.133 30.3501 123.443 30.3501C124.768 30.3501 126.092 30.3959 127.447 30.4874C128.637 30.5789 129.841 30.5637 131.045 30.4416C132.084 30.3196 132.611 29.8314 132.611 28.9924C132.611 28.1076 132.084 27.6194 131.045 27.5126C129.856 27.4059 128.652 27.3906 127.447 27.4669C126.092 27.5432 124.753 27.5737 123.443 27.5737C122.118 27.5737 121.17 27.2381 120.583 26.5668C119.062 24.8735 118.836 23.0429 119.905 21.075C120.974 19.1071 122.615 18.2528 124.798 18.5426C124.527 16.3154 125.355 14.6678 127.297 13.5695C129.239 12.4711 131.061 12.6999 132.762 14.2559C133.379 14.8509 133.71 15.8272 133.725 17.1697C133.74 18.5121 133.71 19.8698 133.62 21.2428C133.53 22.4632 133.545 23.6836 133.65 24.8888C133.755 25.9414 134.237 26.4753 135.11 26.4753C135.938 26.4753 136.42 25.9414 136.54 24.8888C136.661 23.6836 136.676 22.4632 136.586 21.2428C136.495 19.8698 136.45 18.5121 136.45 17.1697C136.45 15.8272 136.781 14.8661 137.444 14.2559C139.145 12.6999 140.951 12.4711 142.878 13.5695C144.805 14.6678 145.648 16.3306 145.408 18.5426Z" fill="#0A8343"/>
<path fill-rule="evenodd" clip-rule="evenodd" d="M143.375 48.8393C145.904 47.7714 148.208 46.2002 150.135 44.217C152.062 42.2338 153.612 39.915 154.696 37.3674C156.924 32.0129 156.924 25.9566 154.696 20.6021C153.612 18.0544 152.062 15.7204 150.135 13.7525C141.84 5.34692 128.381 5.33167 120.086 13.7372C120.086 13.7372 120.086 13.7372 120.071 13.7525C118.144 15.7204 116.593 18.0544 115.509 20.6021C113.281 25.9566 113.281 32.0129 115.509 37.3674C116.593 39.915 118.129 42.2491 120.071 44.217C126.213 50.3953 135.411 52.2107 143.375 48.8393ZM162.796 26.9482C163.112 26.9787 163.368 27.2075 163.443 27.5126C163.774 28.4584 163.774 29.511 163.443 30.4569C163.368 30.762 163.112 30.9908 162.796 31.0213C162.54 30.9908 161.802 30.945 160.613 30.9145C160.432 30.884 160.252 30.8382 160.116 30.8077C159.905 33.874 159.137 36.8793 157.858 39.671C156.608 42.3864 154.907 44.8577 152.83 46.9782C148.554 51.2801 142.893 53.8887 136.872 54.3159C136.917 54.4989 136.947 54.6973 136.977 54.8803C137.007 56.0855 137.052 56.8177 137.097 57.0923C137.067 57.3974 136.842 57.6568 136.54 57.7483C135.607 58.0839 134.568 58.0839 133.635 57.7483C133.334 57.672 133.108 57.4127 133.078 57.0923C133.108 56.833 133.153 56.0855 133.183 54.8803C133.228 54.6973 133.259 54.4989 133.289 54.3159C130.263 54.1023 127.312 53.3243 124.572 52.0276C119.197 49.48 114.877 45.1018 112.363 39.6557C111.068 36.8793 110.3 33.8893 110.104 30.823C109.954 30.8535 109.773 30.8993 109.547 30.9298C108.358 30.9603 107.635 31.006 107.364 31.0366C107.048 31.006 106.792 30.7772 106.717 30.4721C106.386 29.5263 106.386 28.4737 106.717 27.5279C106.792 27.2228 107.048 26.9939 107.364 26.9634C107.62 26.9939 108.358 27.0397 109.547 27.0702C109.773 27.116 109.954 27.1465 110.104 27.177C110.315 24.1107 111.083 21.1207 112.363 18.3443C114.877 12.8982 119.197 8.51999 124.572 5.97238C127.312 4.66044 130.263 3.88243 133.289 3.68411C133.259 3.50105 133.213 3.30274 133.183 3.11968C133.153 1.91452 133.108 1.18228 133.078 0.907683C133.108 0.587325 133.334 0.327985 133.635 0.25171C134.568 -0.0839033 135.607 -0.0839033 136.54 0.25171C136.842 0.327985 137.067 0.587325 137.097 0.907683C137.067 1.16702 137.022 1.91452 136.977 3.11968C136.932 3.30274 136.902 3.50105 136.872 3.68411C142.893 4.11126 148.554 6.70463 152.83 11.0218C154.907 13.1423 156.623 15.6136 157.858 18.329C159.152 21.1207 159.92 24.126 160.116 27.1923C160.267 27.1465 160.432 27.116 160.613 27.0855C161.817 27.0397 162.54 26.9939 162.796 26.9482Z" fill="#148041"/>
</g>
<defs>
<clipPath id="clip0_190_479">
<rect width="305" height="31.0781" fill="white" transform="translate(0 13.0156)"/>
</clipPath>
<clipPath id="clip1_190_479">
<rect width="58.1094" height="58" fill="white" transform="translate(106.469)"/>
</clipPath>
</defs>
</svg>
