<?xml version="1.0" encoding="iso-8859-1"?>
<!-- Generator: Adobe Illustrator 15.0.0, SVG Export Plug-In . SVG Version: 6.00 Build 0)  -->
<!DOCTYPE svg PUBLIC "-//W3C//DTD SVG 1.1//EN" "http://www.w3.org/Graphics/SVG/1.1/DTD/svg11.dtd">
<svg version="1.1" id="Layer_1" xmlns="http://www.w3.org/2000/svg" xmlns:xlink="http://www.w3.org/1999/xlink" x="0px" y="0px"
	 width="48px" height="40px" viewBox="0 0 48 40" style="enable-background:new 0 0 48 40;" xml:space="preserve">
<path style="fill-rule:evenodd;clip-rule:evenodd;fill:#314338;" d="M2.637,4.21c0.781,0.422,1.207,0.342,1.947,1.017
	c0.322,0.293,0.697,0.582,1.121,0.725c0.337,0.113,0.315-0.003,0.604,0.271C6.258,6.876,5.756,6.597,5.401,6.56
	C5.383,7.027,5.808,7.074,6.225,7.228c3.805,1.405,7.605,2.915,11.335,4.415c4.062,1.633,8.017,3.419,11.749,5.479
	c0.493-0.502,1.204-0.29,1.702-0.26c0.106-0.028,0.029-0.16,0.167-0.227c0.194-0.095,0.698,0.171,0.92,0.328
	c0.32,0.227,0.532,0.43,0.788,0.57c1.185,0.649,2.226,1.115,3.307,1.947c0.226,0.174,0.478,0.391,0.741,0.67
	c0.209,0.22,0.589,0.61,0.648,0.87c0.043,0.19-0.057,0.215-0.064,0.355c-0.033,0.593,0.199,1.669,0.562,2.228
	c0.435,0.667,1.235,1.16,1.915,1.542c1.729,0.969,3.589,1.815,5.408,2.481c0.453,0.166,0.988,0.214,1.409,0.455
	c0.489,0.28,0.829,0.683,1.065,1.409c-0.576,1.221-1.435,2.597-2.138,3.845c-0.245,0.436-0.569,0.856-0.729,1.261
	c-0.095,0.24-0.151,0.629-0.204,0.958c-0.037,0.229-0.077,0.796-0.388,0.832c-0.576,0.067-0.541-1.388-0.423-1.615
	c-0.264-0.156-0.438-0.413-0.665-0.614c-0.168-0.148-0.396-0.232-0.577-0.37c-0.532-0.404-1.044-0.923-1.573-1.362
	c-2.125-1.759-4.262-3.541-6.142-5.862c0.123,0.415-0.929,0.786-1.253,1.036c-0.144,0.111-0.382-0.482-0.546-0.741
	c-0.365-0.576-0.781-1.027-1.114-1.694c-0.157-0.316-0.734-0.772-0.557-0.986c0.275-0.331,0.77-0.816,1.128-0.936
	c-0.142-0.188-0.147-0.532-0.308-0.772c-0.152-0.228-0.979-0.528-1.234-0.657c-1.242-0.628-2.467-1.345-3.684-1.92
	c-0.014,0.221,0.037,0.547-0.155,0.637c-0.194,0.09-0.827-0.313-1.071-0.439c-2.329-1.208-4.931-2.368-7.21-3.483
	c0.111,0.638,0.566,1.047,0.732,1.558c-0.423,0.045-0.93-0.132-1.427-0.199c-0.314-0.042-0.814-0.112-0.936-0.295
	c-0.316-0.473,0.091-1.35,0.356-1.678c-1.043-0.576-2.219-1.109-3.373-1.674c-0.499-0.244-1.175-0.36-1.296-1.131
	C9.965,12,6.913,10.447,3.787,9.11C3.055,8.796,1.732,8.434,1.088,7.826C0.893,7.641,1.059,7.472,1.104,7.129
	C2.072,7.467,2.732,7.817,3.32,7.98c-0.203-0.586-0.655-0.598-1.18-0.813C1.983,7.103,1.83,6.988,1.665,6.925
	C1.232,6.759-0.096,6.504,0.414,5.738C0.537,5.552,0.387,5.134,0.619,5.04c0.255-0.103,0.82,0.287,1.055,0.39
	c0.382,0.168,0.689,0.265,1.045,0.366c0.063-0.485-0.418-0.432-0.633-0.599C2.176,4.92,2.356,4.434,2.637,4.21z"/>
</svg>
