<?xml version="1.0" encoding="iso-8859-1"?>
<!-- Generator: Adobe Illustrator 15.0.0, SVG Export Plug-In . SVG Version: 6.00 Build 0)  -->
<!DOCTYPE svg PUBLIC "-//W3C//DTD SVG 1.1//EN" "http://www.w3.org/Graphics/SVG/1.1/DTD/svg11.dtd">
<svg version="1.1" id="Layer_1" xmlns="http://www.w3.org/2000/svg" xmlns:xlink="http://www.w3.org/1999/xlink" x="0px" y="0px"
	 width="48px" height="40px" viewBox="0 0 48 40" style="enable-background:new 0 0 48 40;" xml:space="preserve">
<g>
	<path style="fill:#314338;" d="M43.897,2.712c0,0,2.165-1.438,3.847-0.135c0.566,1.962-1.623,3.448-1.623,3.448L41.518,9.15
		L39.275,5.85L43.897,2.712z"/>
	<polygon style="fill:#314338;" points="0.592,35.583 0.063,34.773 38.05,7.636 39.391,9.642 	"/>
	<polygon style="fill:#314338;" points="31.557,19.998 30.971,17.854 36.915,15.792 37.62,18.272 	"/>
	<polygon style="fill:#314338;" points="42.1,19.862 42.102,19.877 37.859,20.506 37.598,18.93 41.842,17.6 41.955,18.785 
		43.514,18.471 43.436,19.665 	"/>
	<polygon style="fill:#314338;" points="32.684,6.07 30.834,9.37 30.128,9.063 29.848,9.563 28.242,8.863 29.418,5.273 30.123,5.58 
		30.404,5.08 	"/>
	<path style="fill:#314338;" d="M31.895,21.809c0.001,0,0.001,0.001,0.001,0.002L31.895,21.809L31.895,21.809z"/>
	<polygon style="fill:#314338;" points="31.879,21.809 31.863,21.815 31.863,21.811 	"/>
	<path style="fill:#314338;" d="M28.47,37.527c-5.504,2.403-11.729,0.948-15.615-3.19l6.382-3.385l-0.692-1.304l10.819-5.736
		l-0.435-0.818l1.152-0.47L32,21.815V22h-0.105c-0.015,0-0.029-0.18-0.045-0.221c-0.064-0.177-0.135-0.401-0.211-0.576l3.972-1.758
		C38.66,26.404,35.445,34.481,28.47,37.527z"/>
	<polygon style="fill:#314338;" points="31.896,21.809 31.896,21.811 31.895,21.809 	"/>
	<path style="fill:#314338;" d="M29.065,11.061l-3.662,2.871c-0.146-0.067-0.292-0.13-0.439-0.188l-1.134,0.889
		c-0.184-0.085-0.372-0.161-0.562-0.229l-9.783,8.172c0.009,0.049,0.018,0.098,0.027,0.146l-1.472,1.153
		c0.021,0.157,0.048,0.314,0.078,0.472l-3.663,2.871c-1.931-5.392-0.341-11.743,4.46-15.508C17.719,7.944,24.277,7.91,29.065,11.061
		z"/>
</g>
</svg>
