<svg xmlns="http://www.w3.org/2000/svg" xmlns:xlink="http://www.w3.org/1999/xlink" width="62" height="47" viewBox="0 0 62 47">
  <defs>
    <clipPath id="clip-Pheasant">
      <rect width="62" height="47"/>
    </clipPath>
  </defs>
  <g id="Pheasant" clip-path="url(#clip-Pheasant)">
    <rect width="62" height="47" fill="#f3f8f4"/>
    <path id="Union" d="M50.368.158A3.348,3.348,0,0,1,51.545.007C54.2.031,54.5,1.712,54.528,1.786a.622.622,0,0,1,.065.2L54.6,2v.081c0,.015,0,.032,0,.05l.152.041.085.033q.072.025.144.054l.013,0h0a3.284,3.284,0,0,1,1.493,1.153c.013.024.024.048.034.072s.033.058.048.088l.027.13c.006.024.012.05.018.079.007.061.013.121.02.184h0a2.753,2.753,0,0,1-.593-.026c-.057-.01-.116-.022-.178-.038a2.622,2.622,0,0,0-.4-.071c-.146-.015-.54-.024-.588-.025h-.045a2.438,2.438,0,0,0-1.482.766,5.012,5.012,0,0,0-.8,1.946c0,.035,0,.056,0,.075a20.258,20.258,0,0,1,.384,2.625,16.5,16.5,0,0,1-1.064,6.617A11.816,11.816,0,0,1,48.8,19.889a43.334,43.334,0,0,1-3.591,2.646,8.279,8.279,0,0,0-1.863,2.814c.042.322.456.579.456.579.093.1,3.234,3.294,3.287,3.329a3.178,3.178,0,0,1,.282.166l.046.028a2.933,2.933,0,0,0,1.1.328c.24.011.48.017.721.02.3.006.562.012.782.018.367,0,.595,0,.752.021a1.323,1.323,0,0,1,1.365.9h.029v.131h0l-.065.014c-.066.014-.131.024-.2.032a3.765,3.765,0,0,1-.51.023h-.131l-3.057-.034c-.2,0-.392,0-.584-.016a2.245,2.245,0,0,1-.838-.151l.031-.008q-.075-.029-.148-.065l-.014.007-.291-.189,0,0a.508.508,0,0,1-.177-.116l-.058-.043a.618.618,0,0,0-.182-.047l-.056-.006-.191.065-1.026.4-1.422.131h-.006c-.066-.066-.066-.066-.07-.271l0-.019a.7.7,0,0,1,.033-.124,11.6,11.6,0,0,1,1.32-.831c.049-.015.1-.03.141-.046a2.26,2.26,0,0,0,.255-.106l.089-.047c-.016-.138-3.544-3.528-3.587-3.556l-.069-.056a.885.885,0,0,1-.273-.254.276.276,0,0,1-.066-.121l-.008-.015c0-.014,0-.027,0-.041s0-.025,0-.038a2.1,2.1,0,0,1-.112-.376l-.046-.18c-.017-.069-.035-.138-.053-.21l-.008-.033c-.008-.025-.016-.049-.025-.074a28.734,28.734,0,0,0-3.626-1.082h0l-.251-.04a2.584,2.584,0,0,0-.617-.008c-.19.023-3.078,1.19-3.21,1.212l-.028.01-.027.009c-.047.018-.093.037-.137.057l0,.009-.114.051a1.545,1.545,0,0,1-.24.22c-.022.03-.044.063-.065.1-.058.117-.116.234-.171.352h0l-.092.165c-.033.059-1.092,2.067-1.126,2.132a7.891,7.891,0,0,0-.329,1.125,1.432,1.432,0,0,0,.045.189,1.069,1.069,0,0,0,.284.376,9.614,9.614,0,0,0,1.413.475H32.5c.243.018.487.026.734.03a2,2,0,0,1,1.483.559,1.158,1.158,0,0,1,.085.126l0,.009,0,.011a.929.929,0,0,1,.037.116l-.006.03c-.015.087-.033.173-.052.26l-.008.038h0l-.311,0c-.2,0-3.382-.084-3.534-.115a3.593,3.593,0,0,1-1.282-.691,1.435,1.435,0,0,1-.36-1.022q-.005-.033-.009-.067-.009-.067-.015-.136l-.114.037-.013,0a.28.28,0,0,1-.191.007c-.02,0-1.131.144-1.3.15a2.873,2.873,0,0,1-.353,0,.913.913,0,0,1-.066-.262,2.582,2.582,0,0,1,.732-.685,5.875,5.875,0,0,1,1.453-.5c.037-.087,1.749-3.472,1.817-3.829a.887.887,0,0,1,.05-.252c.054-.219.806-1.653.87-1.76-.213-.081-1.442-.542-1.608-.617-.131-.049-3.9-1.856-3.962-1.869a17.8,17.8,0,0,1-2.819-.922l-.011,0V18.21h.037a.786.786,0,0,1,.229-.354l.193-.172c-.16-.1-.323-.19-.488-.275C23.616,17.365,5.411,8.671,5.1,8.535s-1.4-.642-1.48-.68C3.469,7.813.451,6.434.4,6.408L.252,6.34A.441.441,0,0,1,.11,6.227a.213.213,0,0,1-.057-.08L.044,6.135,0,6.07v-.2H0s0,0,0,0c.214-.009,2.864.535,3.243.639,1.294.355,9.492,2.926,9.92,3.069.363.054,11.148,3.445,11.314,3.482l.13.028h0v0a7.6,7.6,0,0,0,2.849-.133c.253-.057,7.524-3.217,8-3.389a19.581,19.581,0,0,1,5.756-1.279c.431-.036,1.694-.064,1.77-.063h.067V8.1l2.685-.345c.318-.012.667-.58.734-.646l.01-.01a2.322,2.322,0,0,0,.236-.421,6.363,6.363,0,0,1,.261-1.644A21.882,21.882,0,0,1,47.8,2.772c.028-.081.056-.163.086-.247.023-.055.04-.095.055-.125l.015-.075-.144-.056-.13-.052a1.773,1.773,0,0,1-.436-.18L47.176,2,47.163,2a1.2,1.2,0,0,1-.287-.185.619.619,0,0,1-.056-.049l-.1-.09c-.012-.05-.022-.09-.03-.124l-.036-.007c0-.11,0-.219,0-.328l.026-.025c.033-.05.111-.043.291-.047l.22,0,.052,0,.159-.005c.072,0,.142-.012.21-.022.3-.043,2.192-.806,2.236-.8A5.169,5.169,0,0,1,50.368.158ZM45.016,14.47c.208-.99-3.773,4.582-7.791,5.9a14.783,14.783,0,0,1-2.444.467h0a12.314,12.314,0,0,0,4.5-.7C41.351,19.355,44.808,15.46,45.016,14.47Z" transform="translate(2.684 9.994)" fill="#314338"/>
  </g>
</svg>
