<?xml version="1.0" encoding="iso-8859-1"?>
<!-- Generator: Adobe Illustrator 15.0.0, SVG Export Plug-In . SVG Version: 6.00 Build 0)  -->
<!DOCTYPE svg PUBLIC "-//W3C//DTD SVG 1.1//EN" "http://www.w3.org/Graphics/SVG/1.1/DTD/svg11.dtd">
<svg version="1.1" id="Layer_1" xmlns="http://www.w3.org/2000/svg" xmlns:xlink="http://www.w3.org/1999/xlink" x="0px" y="0px"
	 width="48px" height="40px" viewBox="0 0 48 40" style="enable-background:new 0 0 48 40;" xml:space="preserve">
<circle style="fill:#314338;" cx="23.595" cy="19.793" r="17.675"/>
<path style="fill:#FFFFFF;" d="M23.595,32.337c-6.917,0-12.543-5.627-12.543-12.543S16.679,7.25,23.595,7.25
	s12.543,5.627,12.543,12.543S30.512,32.337,23.595,32.337z M23.595,8.2c-6.393,0-11.593,5.201-11.593,11.593
	c0,6.393,5.201,11.593,11.593,11.593c6.393,0,11.593-5.201,11.593-11.593C35.188,13.401,29.988,8.2,23.595,8.2z"/>
<path style="fill:#FFFFFF;" d="M23.595,26.453c-3.672,0-6.659-2.987-6.659-6.659c0-3.671,2.987-6.659,6.659-6.659
	c3.672,0,6.659,2.987,6.659,6.659C30.254,23.465,27.268,26.453,23.595,26.453z M23.595,14.085c-3.148,0-5.708,2.561-5.708,5.708
	c0,3.148,2.561,5.708,5.708,5.708c3.147,0,5.708-2.561,5.708-5.708C29.304,16.646,26.742,14.085,23.595,14.085z"/>
<g>
	<path style="fill:#FFFFFF;" d="M22.667,29.942c0.102,0.01,0.183,0.005,0.335,0c0.239-0.015,0.478-0.082,0.65-0.204
		c0.218-0.147,0.361-0.366,0.417-0.615l-0.01-0.005c-0.147,0.152-0.366,0.239-0.666,0.239c-0.559,0-1.026-0.386-1.026-1.031
		c0-0.646,0.519-1.189,1.245-1.189c0.849,0,1.25,0.65,1.25,1.423c0,0.691-0.219,1.189-0.58,1.524
		c-0.315,0.285-0.752,0.437-1.265,0.458c-0.127,0.01-0.264,0.005-0.351,0V29.942z M23.134,28.28c0,0.285,0.157,0.528,0.467,0.528
		c0.213,0,0.361-0.097,0.432-0.213c0.025-0.051,0.036-0.102,0.036-0.198c0.005-0.351-0.127-0.696-0.488-0.696
		C23.322,27.701,23.134,27.935,23.134,28.28z"/>
</g>
<g>
	<path style="fill:#FFFFFF;" d="M22.966,34.97c-0.32-0.167-0.478-0.437-0.478-0.727c0-0.559,0.503-0.93,1.164-0.93
		c0.772,0,1.092,0.447,1.092,0.849c0,0.285-0.152,0.564-0.482,0.727v0.016c0.325,0.122,0.609,0.396,0.609,0.818
		c0,0.6-0.503,1.006-1.27,1.006c-0.838,0-1.225-0.472-1.225-0.919c0-0.396,0.229-0.671,0.589-0.828V34.97z M24.084,35.783
		c0-0.29-0.218-0.462-0.518-0.544c-0.254,0.071-0.401,0.254-0.401,0.493c-0.005,0.239,0.178,0.462,0.467,0.462
		C23.901,36.195,24.084,36.017,24.084,35.783z M23.22,34.218c0,0.224,0.198,0.366,0.462,0.447c0.178-0.051,0.335-0.214,0.335-0.417
		c0-0.208-0.117-0.412-0.401-0.412C23.353,33.837,23.22,34.015,23.22,34.218z"/>
</g>
<g>
	<path style="fill:#FFFFFF;" d="M22.966,4.656c-0.32-0.167-0.478-0.437-0.478-0.727c0-0.559,0.503-0.93,1.164-0.93
		c0.772,0,1.092,0.447,1.092,0.849c0,0.285-0.152,0.564-0.482,0.727V4.59c0.325,0.122,0.609,0.396,0.609,0.818
		c0,0.6-0.503,1.006-1.27,1.006c-0.838,0-1.225-0.472-1.225-0.919c0-0.396,0.229-0.671,0.589-0.828V4.656z M24.084,5.469
		c0-0.29-0.218-0.462-0.518-0.544c-0.254,0.071-0.401,0.254-0.401,0.493C23.16,5.657,23.342,5.88,23.632,5.88
		C23.901,5.88,24.084,5.703,24.084,5.469z M23.22,3.904c0,0.224,0.198,0.366,0.462,0.447c0.178-0.051,0.335-0.214,0.335-0.417
		c0-0.208-0.117-0.412-0.401-0.412C23.353,3.522,23.22,3.701,23.22,3.904z"/>
</g>
<g>
	<path style="fill:#FFFFFF;" d="M22.667,11.886c0.102,0.01,0.183,0.005,0.335,0c0.239-0.015,0.478-0.082,0.65-0.204
		c0.218-0.147,0.361-0.366,0.417-0.615l-0.01-0.005c-0.147,0.152-0.366,0.239-0.666,0.239c-0.559,0-1.026-0.386-1.026-1.031
		c0-0.646,0.519-1.189,1.245-1.189c0.849,0,1.25,0.65,1.25,1.423c0,0.691-0.219,1.189-0.58,1.524
		c-0.315,0.285-0.752,0.437-1.265,0.458c-0.127,0.01-0.264,0.005-0.351,0V11.886z M23.134,10.224c0,0.285,0.157,0.528,0.467,0.528
		c0.213,0,0.361-0.097,0.432-0.213c0.025-0.051,0.036-0.102,0.036-0.198c0.005-0.351-0.127-0.696-0.488-0.696
		C23.322,9.645,23.134,9.878,23.134,10.224z"/>
</g>
<g>
	<path style="fill:#FFFFFF;" d="M31.6,20.914c0.102,0.01,0.183,0.005,0.335,0c0.239-0.016,0.478-0.082,0.65-0.204
		c0.219-0.147,0.361-0.366,0.417-0.615l-0.011-0.005c-0.146,0.152-0.365,0.239-0.665,0.239c-0.559,0-1.026-0.386-1.026-1.031
		c0-0.646,0.519-1.189,1.245-1.189c0.849,0,1.25,0.65,1.25,1.423c0,0.691-0.219,1.189-0.58,1.524
		c-0.314,0.285-0.752,0.437-1.265,0.458c-0.127,0.01-0.265,0.005-0.351,0V20.914z M32.067,19.252c0,0.285,0.157,0.528,0.467,0.528
		c0.214,0,0.361-0.097,0.432-0.213c0.025-0.051,0.036-0.102,0.036-0.198c0.005-0.351-0.127-0.696-0.488-0.696
		C32.255,18.673,32.067,18.907,32.067,19.252z"/>
</g>
<g>
	<path style="fill:#FFFFFF;" d="M22.083,18.851h-0.01l-0.63,0.3l-0.127-0.58l0.879-0.406h0.635v3.303h-0.747V18.851z"/>
	<path style="fill:#FFFFFF;" d="M25.952,19.801c0,1.016-0.412,1.722-1.25,1.722c-0.854,0-1.229-0.767-1.235-1.702
		c0-0.96,0.402-1.712,1.255-1.712C25.602,18.109,25.952,18.896,25.952,19.801z M24.24,19.821c0,0.757,0.183,1.118,0.478,1.118
		c0.299,0,0.462-0.376,0.462-1.128c0-0.732-0.157-1.118-0.467-1.118C24.433,18.693,24.24,19.049,24.24,19.821z"/>
</g>
<g>
	<path style="fill:#FFFFFF;" d="M38.076,19.766c-0.319-0.168-0.478-0.437-0.478-0.727c0-0.559,0.503-0.93,1.164-0.93
		c0.772,0,1.092,0.447,1.092,0.849c0,0.285-0.152,0.564-0.482,0.727V19.7c0.325,0.122,0.609,0.396,0.609,0.818
		c0,0.6-0.503,1.006-1.27,1.006c-0.839,0-1.225-0.472-1.225-0.919c0-0.396,0.229-0.671,0.589-0.828V19.766z M39.194,20.579
		c0-0.29-0.219-0.462-0.519-0.544c-0.254,0.071-0.401,0.254-0.401,0.493c-0.005,0.239,0.178,0.462,0.468,0.462
		C39.012,20.99,39.194,20.813,39.194,20.579z M38.33,19.014c0,0.224,0.198,0.366,0.463,0.447c0.178-0.051,0.335-0.214,0.335-0.417
		c0-0.208-0.116-0.412-0.401-0.412C38.463,18.632,38.33,18.811,38.33,19.014z"/>
</g>
<g>
	<path style="fill:#FFFFFF;" d="M7.856,19.766c-0.32-0.168-0.478-0.437-0.478-0.727c0-0.559,0.503-0.93,1.164-0.93
		c0.772,0,1.092,0.447,1.092,0.849c0,0.285-0.152,0.564-0.482,0.727V19.7c0.325,0.122,0.609,0.396,0.609,0.818
		c0,0.6-0.503,1.006-1.27,1.006c-0.838,0-1.225-0.472-1.225-0.919c0-0.396,0.229-0.671,0.589-0.828V19.766z M8.975,20.579
		c0-0.29-0.219-0.462-0.519-0.544c-0.254,0.071-0.401,0.254-0.401,0.493C8.05,20.767,8.232,20.99,8.522,20.99
		C8.792,20.99,8.975,20.813,8.975,20.579z M8.11,19.014c0,0.224,0.198,0.366,0.462,0.447c0.178-0.051,0.335-0.214,0.335-0.417
		c0-0.208-0.117-0.412-0.401-0.412C8.243,18.632,8.11,18.811,8.11,19.014z"/>
</g>
<g>
	<path style="fill:#FFFFFF;" d="M13.734,20.914c0.102,0.01,0.183,0.005,0.335,0c0.239-0.016,0.478-0.082,0.65-0.204
		c0.218-0.147,0.361-0.366,0.417-0.615l-0.01-0.005c-0.147,0.152-0.366,0.239-0.666,0.239c-0.559,0-1.026-0.386-1.026-1.031
		c0-0.646,0.519-1.189,1.245-1.189c0.849,0,1.25,0.65,1.25,1.423c0,0.691-0.219,1.189-0.58,1.524
		c-0.315,0.285-0.752,0.437-1.265,0.458c-0.127,0.01-0.264,0.005-0.351,0V20.914z M14.202,19.252c0,0.285,0.157,0.528,0.467,0.528
		c0.213,0,0.361-0.097,0.432-0.213c0.025-0.051,0.036-0.102,0.036-0.198c0.005-0.351-0.127-0.696-0.488-0.696
		C14.39,18.673,14.202,18.907,14.202,19.252z"/>
</g>
</svg>
