<?xml version="1.0" encoding="iso-8859-1"?>
<!-- Generator: Adobe Illustrator 15.0.0, SVG Export Plug-In . SVG Version: 6.00 Build 0)  -->
<!DOCTYPE svg PUBLIC "-//W3C//DTD SVG 1.1//EN" "http://www.w3.org/Graphics/SVG/1.1/DTD/svg11.dtd">
<svg version="1.1" id="Layer_1" xmlns="http://www.w3.org/2000/svg" xmlns:xlink="http://www.w3.org/1999/xlink" x="0px" y="0px"
	 width="48px" height="40px" viewBox="0 0 48 40" style="enable-background:new 0 0 48 40;" xml:space="preserve">
<path style="fill-rule:evenodd;clip-rule:evenodd;fill:#314338;" d="M11.184,9.059c0.892-0.649,1.818-1.359,2.749-2.064
	c0.447-0.34,0.864-0.697,1.456-0.963c0.259-0.116,0.537-0.271,0.849-0.355c0.539-0.144,1.448-0.423,1.419,0.406
	c0.521-0.058,1.244-0.111,1.292,0.443c1.43,0.109,2.825,0.21,4.206,0.38c0.19,0.023,0.387,0.079,0.57,0.075
	c0.071-0.001,0.141-0.031,0.215-0.037c0.251-0.022,0.497-0.009,0.747-0.038c0.671-0.08,1.32-0.325,1.977-0.354
	c0.93-0.043,1.783,0.262,2.622,0.493c0.364-0.077,0.652,0.117,0.95,0.216c0.661,0.219,1.52,0.192,2.344,0.089
	c1.028-0.13,1.995-0.334,3.053-0.418c1.146-0.092,2.31-0.083,3.23,0.139c0.954,0.23,1.456,0.81,1.938,1.533
	c0.039,0.244,0.128,0.479,0.267,0.646c0.047,0.057,0.12,0.103,0.177,0.165c0.053,0.058,0.101,0.132,0.152,0.178
	c0.245,0.216,0.565,0.349,0.811,0.569c0.188,0.17,0.317,0.396,0.507,0.57c0.552,0.51,1.125,1.042,1.786,1.444
	c-0.04,0.061-0.164,0.038-0.215,0.089c0.155,0.645,0.632,1.036,0.924,1.545c0.104,0.18,0.144,0.359,0.216,0.596
	c0.027,0.09,0.086,0.158,0.102,0.266c0.024,0.175-0.009,0.36,0,0.532c0.024,0.536-0.073,0.951-0.152,1.419
	c-0.049,0.292-0.118,0.58-0.215,0.849c-0.096,0.265-0.236,0.527-0.267,0.798c-0.028,0.259-0.05,0.503-0.013,0.685
	c0.038,0.181,0.135,0.339,0.203,0.507c0.072,0.176,0.145,0.329,0.253,0.469c0.095,0.121,0.252,0.207,0.342,0.367
	c0.037,0.064,0.041,0.139,0.076,0.202c0.09,0.161,0.221,0.325,0.317,0.507c0.31,0.588,0.632,1.157,0.836,1.9
	c0.041,0.151,0.101,0.322,0.101,0.443c0.001,0.101-0.052,0.161-0.05,0.253c0.002,0.119,0.063,0.203,0.101,0.305
	c-0.395,0.546-0.276,1.702,0.089,2.191c-0.137,0.421,0.278,1.04-0.127,1.241c-0.08-0.085-0.098-0.199-0.139-0.291
	c-0.082-0.184-0.176-0.367-0.292-0.545c-0.052-0.08-0.146-0.16-0.177-0.241c-0.058-0.15-0.016-0.312-0.051-0.48
	c-0.493,0.095-0.571-0.391-0.481-0.824c0.036-0.177,0.174-0.351,0.152-0.493c-0.02-0.129-0.379-0.307-0.456-0.368
	c-0.164-0.128-0.339-0.229-0.431-0.354c0.187-0.024,0.342-0.031,0.481-0.089c0.351-0.144,0.509-0.619,0.291-0.976
	c-0.081-0.131-0.212-0.164-0.291-0.278c-0.074-0.106-0.14-0.313-0.203-0.443c-0.141-0.291-0.334-0.51-0.545-0.747
	c-0.099-0.111-0.224-0.212-0.304-0.329c-0.066-0.099-0.118-0.224-0.178-0.33c-0.175-0.313-0.357-0.631-0.557-0.938
	c-0.291,0.262-0.457,0.679-0.672,1.064c-0.102,0.182-0.211,0.37-0.316,0.558c-0.102,0.18-0.245,0.362-0.316,0.544
	c-0.061,0.155-0.087,0.367-0.127,0.558c-0.11,0.52-0.229,1.201-0.178,1.837c0.031,0.379,0.139,0.746,0.241,1.103
	c0.099,0.345,0.204,0.738,0.354,0.987c0.057,0.094,0.154,0.179,0.253,0.19c0.175,0.021,0.225-0.079,0.317-0.114
	c0.151,0.171,0.123,0.663,0.037,0.887c0.114,0.218,0.058,0.55-0.126,0.646c0.14,0.266-0.03,0.461-0.14,0.709
	c-0.067,0.152-0.104,0.33-0.14,0.481c-0.158,0.699-0.397,1.25-0.544,1.964c-0.08,0.387,0.039,0.792-0.051,1.203
	c-0.02,0.09-0.074,0.123-0.089,0.229c-0.055,0.38,0.101,0.639,0.178,0.938c0.143,0.561,0.115,1.267,0.113,2.014
	c-0.254,0.213-0.742,0.238-1.216,0.152c-0.152-0.028-0.306-0.08-0.456-0.102c-0.183-0.026-0.354-0.007-0.494-0.051
	c-0.122-0.038-0.193-0.15-0.291-0.19c-0.132-0.053-0.353-0.016-0.469-0.063c-0.396,0.23-0.83-0.109-0.672-0.558
	c0.181-0.511,0.78-0.887,1.217-1.09c0.115-0.252,0.364-0.467,0.456-0.76c0.074-0.239,0.039-0.496,0.139-0.747
	c-0.117-0.027-0.225-0.063-0.278-0.152c0.013-0.407,0.229-0.797,0.151-1.203c-0.019-0.101-0.114-0.185-0.126-0.279
	c-0.013-0.103,0.051-0.275,0.076-0.418c0.169-0.961,0.45-1.815,0.76-2.609c-0.112-0.191-0.294-0.336-0.443-0.507
	c-0.444-0.509-0.893-1.057-1.178-1.735c-0.097,0.708,0.067,1.379,0.177,1.964c0.092,0.187,0.189,0.368,0.33,0.507
	c0.043,0.215,0.073,0.408,0.012,0.595c-0.02,0.061-0.065,0.104-0.101,0.165c-0.036,0.062-0.046,0.137-0.076,0.19
	c-0.056,0.098-0.168,0.203-0.253,0.304c-0.244,0.284-0.556,0.615-0.799,0.874c0.012,0.231-0.135,0.302-0.253,0.431
	c-0.07,0.076-0.124,0.174-0.178,0.253c-0.346,0.508-0.632,1.038-0.811,1.735c-0.059,0.229-0.101,0.459-0.14,0.71
	c-0.039,0.253-0.01,0.514,0,0.798c0.021,0.541,0.034,1.114-0.088,1.608c-0.761,0.038-1.752,0.048-2.483-0.063
	c-0.107-0.016-0.216-0.059-0.304-0.063c-0.176-0.008-0.249,0.054-0.405-0.013c-0.61-0.26-0.037-0.992,0.189-1.268
	c0.211-0.255,0.411-0.462,0.634-0.671c0.162,0.026,0.259-0.012,0.342-0.089c0.087-0.081,0.092-0.219,0.165-0.291
	c0.081-0.082,0.188-0.064,0.291-0.127c0.143-0.317,0.194-0.643,0.316-0.988c0.137-0.385,0.351-0.809,0.469-1.254
	c0.03-0.112,0.038-0.242,0.076-0.354c0.037-0.109,0.128-0.238,0.19-0.354c0.176-0.328,0.401-0.701,0.481-1.115
	c0.147-0.182,0.306-0.353,0.443-0.544c-0.082-0.293-0.307-0.699-0.14-1.039c-0.08-0.175-0.179-0.334-0.24-0.532
	c-0.064-0.205-0.062-0.424-0.089-0.671c-0.023-0.202-0.077-0.405-0.102-0.621c-0.072-0.645-0.051-1.355,0.076-1.977
	c-0.603-0.173-1.422-0.241-2.268-0.304c-0.813-0.061-1.606-0.157-2.078-0.494c-0.246-0.176-0.415-0.557-0.215-0.912
	c0.074-0.132,0.159-0.21,0.278-0.316c-2.049,0.086-4.023,0.158-5.7,0.596c-1.675,0.437-3.128,1.065-4.269,2.014
	c-0.258,0.706-0.471,1.452-0.659,2.255c-0.062,0.263-0.146,0.533-0.165,0.798c-0.021,0.296,0.012,0.607,0,0.925
	c-0.01,0.284-0.072,0.693,0,0.963c0.246,0.905,0.767,1.641,1.217,2.42c0.147,0.256,0.374,0.547,0.316,0.861
	c-0.027,0.147-0.09,0.222-0.165,0.342c0.082,0.077,0.2,0.166,0.216,0.329c0.016,0.166-0.088,0.378-0.089,0.621
	c-0.001,0.212,0.013,0.444,0.025,0.671c0.027,0.475,0.108,0.929,0.127,1.279c0.027,0.543-0.72,0.415-1.052,0.216
	c-0.471,0.03-1.144,0.147-1.735,0.114c-0.477-0.027-0.873-0.063-0.747-0.596c-0.236,0.102-0.537,0.244-0.85,0.342
	c-0.212,0.066-0.431,0.143-0.595-0.025c-0.276-0.281-0.134-1.197-0.013-1.634c0.041-0.149,0.071-0.312,0.114-0.418
	c0.032-0.084,0.137-0.162,0.151-0.241c0.017-0.086-0.022-0.166-0.013-0.24c0.025-0.18,0.153-0.292,0.19-0.443
	c-0.051-0.125-0.18-0.154-0.279-0.216c-0.281-0.175-0.532-0.454-0.785-0.684c-0.344-0.313-0.658-0.629-0.95-1.001
	c-0.572-0.729-1.149-1.462-1.823-2.09c0.048-0.118-0.036-0.152-0.051-0.254c-0.036-0.239,0.14-0.471,0.139-0.671
	c0-0.101-0.062-0.189-0.051-0.342c0.03-0.409,0.196-0.852,0.33-1.254c0.139-0.419,0.263-0.83,0.431-1.153
	c-0.063-0.372,0.13-0.595,0.291-0.785c-0.391-0.461-0.709-1.025-0.836-1.748c-0.044-0.249-0.022-0.49-0.038-0.785
	c-0.008-0.146-0.067-0.298-0.089-0.456c-0.063-0.473-0.059-1.007,0.038-1.482c-0.383-0.168-0.842-0.167-1.279-0.127
	c-0.851,0.077-1.627,0.272-2.382,0.481c-0.381,0.105-0.788,0.187-1.089,0.329c-0.058,0.027-0.097,0.063-0.14,0.114
	c-0.478,0.105-0.909,0.256-1.229,0.52c-0.313-0.018-0.468,0.19-0.685,0.228c-0.089,0.133-0.205,0.215-0.278,0.354
	c-0.031,0.06-0.031,0.131-0.063,0.19c-0.063,0.117-0.23,0.25-0.316,0.367c-0.161,0.22-0.268,0.384-0.241,0.786
	c0.007,0.088-0.009,0.197,0.013,0.291c0.02,0.083,0.114,0.111,0.14,0.202c0.032,0.113,0.005,0.27,0.013,0.394
	c0.022,0.357,0.121,0.662,0.24,0.949c-0.234,0.146-0.625,0.112-0.987,0.102c-0.001,0.296,0.105,0.479,0.075,0.773
	c-0.067,0.674-0.939,0.747-1.697,0.62c-0.092-0.016-0.186-0.053-0.278-0.063c-0.243-0.028-0.501,0.058-0.71,0.013
	c-0.114-0.024-0.298-0.247-0.405-0.367c-0.25-0.281-0.461-0.591-0.633-0.912c-0.096-0.179-0.126-0.37-0.203-0.57
	c-0.035-0.092-0.115-0.156-0.139-0.228c-0.055-0.16-0.019-0.405-0.038-0.558c-0.156-0.093-0.331-0.168-0.481-0.266
	c-0.085-0.175-0.182-0.38-0.254-0.608c-0.064-0.205-0.173-0.426-0.202-0.646c-0.022-0.168-0.01-0.342-0.038-0.52
	c-0.051-0.312-0.097-0.619-0.178-0.938c-0.038-0.15-0.123-0.296-0.126-0.418c-0.005-0.169,0.123-0.352,0-0.494
	c-0.34-0.392-0.707-0.865-0.875-1.47c0.002-0.057-0.084-0.025-0.075-0.089c-0.057-0.295-0.103-0.636-0.102-0.976
	c0-0.107,0.047-0.239,0.025-0.342c-0.013-0.059-0.129-0.169-0.178-0.228c-0.401-0.485-0.736-1.121-0.722-2.027
	c0.016-0.984,0.428-1.693,0.95-2.204c0.517-0.506,1.255-0.912,2.28-0.874c0.518,0.02,1.025,0.078,1.469,0
	c1.261-0.222,2.331-0.863,2.889-1.837c0.206-0.359,0.34-0.759,0.342-1.241c0.002-0.462-0.14-0.866-0.354-1.216
	c-0.746-1.212-2.528-1.91-4.548-1.47C3.395,4.641,4.251,4.576,4.888,4.422C5.113,4.367,5.324,4.31,5.559,4.296
	c0.977-0.06,2.03-0.119,2.863,0.189c0.602,0.224,1.102,0.44,1.532,0.811c0.654,0.562,1.004,1.302,1.166,2.356
	C11.188,8.1,11.246,8.601,11.184,9.059z M18.821,27.401c-0.09-0.007-0.127-0.065-0.189-0.051c-0.06,0.181-0.111,0.338-0.189,0.52
	c-0.064,0.147-0.212,0.352-0.19,0.532c0.012,0.1,0.17,0.235,0.266,0.342c0.102,0.111,0.202,0.228,0.292,0.316
	c0.412,0.412,0.927,0.715,1.381,1.052c0.39,0.289,0.957,0.516,0.785,1.19c0.156,0.019,0.302,0.121,0.354,0.267
	c0.028,0.076,0.021,0.169,0.038,0.253c0.084,0.426,0.366,0.789,0.507,1.141c0.078-0.054,0.204-0.167,0.278-0.267
	c-0.138-0.224-0.283-0.442-0.405-0.684c-0.12-0.24-0.229-0.493-0.342-0.748c-0.231-0.522-0.357-1.081-0.532-1.646
	c-0.175-0.564-0.317-1.135-0.52-1.659c-0.202-0.525-0.508-0.964-0.798-1.394c-0.001-0.008-0.002-0.016-0.013-0.013
	C19.356,26.831,19.263,27.432,18.821,27.401z"/>
</svg>
