<?xml version="1.0" encoding="iso-8859-1"?>
<!-- Generator: Adobe Illustrator 15.0.0, SVG Export Plug-In . SVG Version: 6.00 Build 0)  -->
<!DOCTYPE svg PUBLIC "-//W3C//DTD SVG 1.1//EN" "http://www.w3.org/Graphics/SVG/1.1/DTD/svg11.dtd">
<svg version="1.1" id="Layer_1" xmlns="http://www.w3.org/2000/svg" xmlns:xlink="http://www.w3.org/1999/xlink" x="0px" y="0px"
	 width="48px" height="40px" viewBox="0 0 48 40" style="enable-background:new 0 0 48 40;" xml:space="preserve">
<g>
	<path style="fill-rule:evenodd;clip-rule:evenodd;fill:#314338;" d="M14.998,0.19c0.426,0.167,0.861,0.522,1.212,0.777
		c0.375,0.271,0.755,0.596,1.141,0.823c0.418,0.246,0.787,0.505,1.165,0.8c1.094,0.855,2.044,1.884,2.707,3.2
		c0.207,0.414,0.438,0.84,0.705,1.259c0.243,0.383,0.571,0.847,0.941,1.024c0.072,0.035,0.18,0.072,0.282,0.059
		c1.027,3.087,2.027,6.202,3.06,9.283c-0.395-0.179-1.22-0.848-1.86-0.517c-0.325,0.168-0.425,0.563-0.445,1.059
		c-0.43,0.104-0.912,0.156-1.46,0.141c0.023-0.732,0.033-1.56,0.2-2.177c0.063-0.23,0.212-0.397,0.235-0.624
		c0.04-0.398-0.163-0.645-0.307-0.776c-0.168-0.155-0.453-0.289-0.729-0.341c-0.617-0.118-1.477,0.105-1.93-0.223
		c-0.57-0.413-0.532-1.422-0.953-2c-0.072-0.099-0.177-0.213-0.306-0.282c-0.344-0.184-0.671-0.055-1.023,0.094
		c-0.33,0.138-0.788,0.176-1.095,0.047c-0.304-0.128-0.493-0.364-0.624-0.683c-0.179-0.437-0.246-1.015-0.671-1.224
		c-0.089-0.044-0.253-0.075-0.399-0.047c-0.163,0.031-0.307,0.158-0.447,0.212c-0.692,0.264-1.694,0.253-1.93-0.376
		c-0.183-0.488,0.03-1.158,0.142-1.66c0.263-1.181,0.585-2.292,0.918-3.436c0.331-1.138,0.66-2.214,1.034-3.33
		C14.686,0.906,14.819,0.459,14.998,0.19z"/>
	<path style="fill-rule:evenodd;clip-rule:evenodd;fill:#314338;" d="M31.13,16.04c0.213,0.03,0.348,0.162,0.528,0.2
		c0.189,0.04,0.423,0.024,0.636,0.024c0.635,0,1.293-0.043,1.871-0.094c0.828-0.073,1.595-0.232,2.341-0.259
		c-0.152,0.563-0.277,1.021-0.753,1.212c-0.091,0.036-0.198,0.052-0.294,0.094c-0.633,0.277-0.812,1.13-1.035,1.87
		c-0.898,2.969-1.755,5.955-2.766,8.861c-0.241,0.694-0.467,1.445-0.823,2.082c-0.506,0.905-1.105,1.81-1.424,2.941
		c-0.128,0.457-0.185,1.037,0.035,1.389c0.097,0.156,0.25,0.263,0.365,0.4c0.212,0.255,0.42,0.71,0.212,1.13
		c-0.087,0.173-0.236,0.274-0.331,0.435c-0.125,0.216-0.244,0.499-0.352,0.777c-0.132,0.341-0.225,0.924-0.766,0.765
		c-0.387-0.115-0.819-0.486-1.105-0.718c-1.018-0.821-1.954-1.658-2.988-2.459c-0.706-0.548-1.396-1.007-2.013-1.625
		c-1.197-1.197-2.083-2.778-2.482-4.776c-0.109-0.548-0.183-1.052-0.177-1.636c0.004-0.268,0.083-0.512,0.142-0.765
		c0.383-1.662,0.82-3.419,1.225-5.13c0.108-0.467,0.183-1.076,0.445-1.364c0.342-0.374,0.841-0.744,1.472-0.766
		c0.492-0.017,0.91,0.213,1.212,0.458c0.084,0.068,0.209,0.237,0.317,0.26c0.127,0.026,0.313-0.011,0.471-0.023
		c0.752-0.063,1.314-0.267,1.729-0.682c0.119-0.119,0.356-0.397,0.365-0.602c0.005-0.129-0.133-0.408-0.2-0.588
		c-0.772-2.08-1.522-4.156-2.224-6.342c-0.178-0.554-0.37-1.185-0.519-1.824c-0.044-0.195-0.15-0.48-0.129-0.647
		c0.015-0.117,0.156-0.303,0.247-0.412c0.299-0.356,0.74-0.581,1.188-0.753c0.651-0.249,1.399-0.409,2.201-0.447
		c0.24-0.012,0.813-0.03,0.964,0.083c0.084,0.062,0.151,0.334,0.212,0.505c0.438,1.223,0.757,2.562,1.095,3.859
		C30.425,13.021,30.793,14.529,31.13,16.04z"/>
	<path style="fill-rule:evenodd;clip-rule:evenodd;fill:#314338;" d="M32.423,8.485c0.919,0.407,1.86,0.792,2.801,1.177
		c0.294,0.414,0.558,0.845,0.858,1.295c0.087,0.128,0.274,0.311,0.283,0.435c0.003,0.05-0.048,0.176-0.071,0.271
		c-0.333,1.341-0.761,2.691-1.247,3.848c-1.012,0.202-2.389,0.18-3.518,0.094c-0.582-2.407-1.152-4.826-1.742-7.225
		c0.483-0.432,1.055-1.045,1.813-1.212C32.307,7.012,32.463,7.803,32.423,8.485z"/>
	<path style="fill-rule:evenodd;clip-rule:evenodd;fill:#314338;" d="M27.105,38.112c-0.08,0.311-0.213,0.59-0.389,0.848
		c-0.05,0.072-0.105,0.214-0.188,0.224c-0.127,0.017-0.266-0.151-0.353-0.212c-0.131-0.091-0.234-0.133-0.33-0.224
		c-0.207,0.314-0.381,0.661-0.577,0.989c-0.369-0.075-0.637-0.27-0.94-0.436c-0.604-0.33-1.206-0.666-1.812-1.001
		c0.182-0.331,0.353-0.675,0.541-1c-0.504-0.371-1.037-0.711-1.554-1.071c0.086-0.162,0.156-0.285,0.13-0.541
		c-0.049-0.471-0.419-0.591-0.718-0.834c-0.232-0.191-0.408-0.524-0.436-0.884c-0.045-0.576,0.156-1.238,0.425-1.623
		C22.621,34.619,24.745,36.483,27.105,38.112z"/>
</g>
</svg>
