<svg xmlns="http://www.w3.org/2000/svg" xmlns:xlink="http://www.w3.org/1999/xlink" width="62" height="47" viewBox="0 0 62 47">
  <defs>
    <clipPath id="clip-slug">
      <rect width="62" height="47"/>
    </clipPath>
  </defs>
  <g id="slug" clip-path="url(#clip-slug)">
    <rect width="62" height="47" fill="#f3f8f4"/>
    <g id="Union-3" transform="translate(12.933 8.088)">
      <path id="Union_1" data-name="Union 1" d="M1.021,28.824a1.022,1.022,0,0,1-.375-1.972c-.063-.606.025-2.467.025-2.473v0a.02.02,0,0,0,0-.007v-.008a1.783,1.783,0,0,1,.1-.58,8.708,8.708,0,0,1,.866-.95c.624-.637,1.541-1.557,2.189-2.215l1.48-1.5A1.843,1.843,0,0,1,6.482,18.4a18.671,18.671,0,0,1,2.235-.031c1.219-.068.446.754.292.911-.422.433-1.225,1.249-2.107,2.144-1.762,1.788-3.839,3.892-3.867,3.92-.107.106-.56.592-.66.659l-.007.006-.006.007-.023.017c.049,0,.31.019.527.025.165.005.437.062,1.693-1.031s2.467-2.475,3.327-3.344c1.187-1.2,2.353-2.365,2.9-2.889a1.562,1.562,0,0,1,1.32-.466c.9-.01,1.34-.012,1.8,0a.616.616,0,0,1,.478.347,7.456,7.456,0,0,1,.077,1.495c0,1.264,0,3.8,0,5.373a8.683,8.683,0,0,1-.079,1.26,1.022,1.022,0,0,1-.225,2.018ZM15.3,28.439h0ZM1.06,21.951h0c-.022,0-.043,0-.067,0a.4.4,0,0,1-.058-.022.294.294,0,0,1-.125-.067.18.18,0,0,1-.039-.073l-.042-.065a2.626,2.626,0,0,1-.021-.336A17.113,17.113,0,0,1,.79,18.737l-.024-.024L.88,18.56l.013.008c.008-.011.017-.022.026-.031v-.014l.042-.031.025-.023c.023-.011.044-.02.067-.029a.406.406,0,0,1,.1-.03,14.43,14.43,0,0,1,2.609-.026H3.84a.4.4,0,0,1,.233.113.251.251,0,0,1,.029.023l.011.007.014.022.034.05h0a.515.515,0,0,1,.009.2c0,.016,0,.033,0,.051s0,.031,0,.046V18.9l-.012-.013a.66.66,0,0,1-.03.08l0,.008-.006.007-.007.008A5.424,5.424,0,0,1,3.065,20.25,17.984,17.984,0,0,1,1.4,21.8l-.013.013a.548.548,0,0,1-.27.137l0,0,0,.005Zm4.15-2.74S5.21,19.211,5.21,19.211Zm-4.457-3c-.029-.817-.035-1.966-.035-2.216,0-1.285,0-2.55,0-3.814A17.761,17.761,0,0,1,2.333,3.412C3.313,1.523,4.853,0,7.3,0a6.472,6.472,0,0,1,5.681,3.486c1.147,1.94,1.5,6.608,1.5,7.571s0,2.169,0,3.214c0,.59,0,1.4-.006,1.912a1.135,1.135,0,0,1-1.194,1.166c-3.436.026-6.873.03-10.293.021l-.156.005c-.073,0-.166.006-.272.006C1.883,17.381.68,17.256.753,16.21Z" transform="translate(10.4 3.5)" fill="#314338"/>
      <path id="Path_3" data-name="Path 3" d="M387.732,460.245h0Z" transform="translate(-363.301 -439.446)" fill="#314338" fill-rule="evenodd"/>
    </g>
  </g>
</svg>
