<svg width="165" height="133" viewBox="0 0 165 133" fill="none" xmlns="http://www.w3.org/2000/svg">
<path d="M42.501 0C65.9732 0.0002309 85.001 19.0287 85.001 42.501C85.0007 65.973 65.973 85.0007 42.501 85.001C19.0287 85.001 0.00023093 65.9732 0 42.501C0 19.0286 19.0286 0 42.501 0ZM42.501 3.95703C21.2139 3.95703 3.95703 21.2139 3.95703 42.501C3.95726 63.7878 21.2141 81.0439 42.501 81.0439C63.7877 81.0437 81.0437 63.7877 81.0439 42.501C81.0439 21.2141 63.7878 3.95726 42.501 3.95703ZM42.501 6.00879C62.6547 6.00902 78.9922 22.3472 78.9922 42.501C78.992 62.6545 62.6545 78.992 42.501 78.9922C22.3472 78.9922 6.00902 62.6547 6.00879 42.501C6.00879 22.3471 22.3471 6.00879 42.501 6.00879ZM42.501 20.6641C30.441 20.6641 20.6641 30.441 20.6641 42.501C20.6643 54.5607 30.4412 64.3369 42.501 64.3369C54.5606 64.3367 64.3367 54.5606 64.3369 42.501C64.3369 30.4412 54.5607 20.6643 42.501 20.6641ZM42.501 24.1816C52.6182 24.1819 60.8193 32.3837 60.8193 42.501C60.8191 52.618 52.618 60.8201 42.501 60.8203C32.3837 60.8203 24.1819 52.6182 24.1816 42.501C24.1816 32.3836 32.3836 24.1816 42.501 24.1816Z" fill="#314338"/>
<path d="M122.71 38.1957C131.189 38.1958 139.087 40.6791 145.719 44.9575V45.0834C146.305 45.401 146.599 46.4033 145.719 47.5756L144.644 49.0014C138.418 44.6845 130.86 42.1529 122.71 42.1528C101.423 42.1528 84.1663 59.4097 84.1663 80.6967C84.1665 100.431 98.9987 116.698 118.123 118.966C117.798 119.638 117.495 120.272 117.214 120.852C117.095 121.388 116.522 122.319 115.149 122.525C95.2837 118.958 80.2094 101.588 80.2092 80.6967C80.2092 57.2243 99.2378 38.1957 122.71 38.1957ZM122.71 44.2045C130.396 44.2046 137.526 46.5829 143.407 50.6411L134.574 62.3627C131.158 60.1474 127.085 58.8599 122.71 58.8598C110.65 58.8598 100.873 68.6368 100.873 80.6967C100.874 92.7565 110.65 102.533 122.71 102.533C123.888 102.533 125.044 102.438 126.171 102.258C124.351 106.067 121.413 112.155 119.069 117.007C100.625 115.18 86.2182 99.6214 86.218 80.6967C86.218 60.5428 102.556 44.2045 122.71 44.2045ZM122.71 62.3774C126.29 62.3774 129.629 63.4051 132.45 65.1801L122.857 77.9116C121.538 79.2305 121.332 80.3444 122.27 82.4545C123.208 84.5649 126.374 92.3229 127.839 95.9379C128.053 96.2588 128.342 97.1188 128.017 98.2328C126.337 98.7406 124.556 99.016 122.71 99.0161C112.593 99.0161 104.391 90.8139 104.391 80.6967C104.391 70.5793 112.593 62.3774 122.71 62.3774Z" fill="#314338"/>
<path d="M162.529 110.499C162.985 110.734 163.497 111.124 163.797 111.688C163.992 112.054 164.094 112.489 164.033 112.976C163.973 113.459 163.757 113.963 163.366 114.484C161.634 116.793 159.587 120.786 152.932 125.723C145.952 130.901 138.486 131.957 136.342 132.329C135.883 132.495 135.259 132.468 134.718 132.226C134.118 131.957 133.583 131.408 133.453 130.524C133.42 130.295 133.391 129.87 133.363 129.286C145.8 127.984 156.475 120.768 162.529 110.499ZM148.249 101.822C152.584 104.475 157.256 107.327 160.758 109.461C155.049 119.143 145.001 125.958 133.285 127.229C133.275 126.889 133.266 126.528 133.256 126.151C133.2 123.912 133.15 121.013 133.101 117.877C133.074 116.127 133.046 114.302 133.019 112.475C139.538 111.358 145.07 107.353 148.249 101.822ZM133.328 94.558C133.934 93.93 134.897 93.8657 136.176 94.4155L136.436 94.5336L136.464 94.5473L136.49 94.5649C137.606 95.2839 141.064 97.4145 145.248 99.9809C142.677 104.512 138.232 107.841 132.965 108.909C132.911 105.44 132.855 102.143 132.789 99.5405L132.788 99.5278H132.789V96.6254C132.752 96.3221 132.749 95.9669 132.815 95.6176C132.883 95.2554 133.033 94.865 133.328 94.558Z" fill="#314338"/>
<path d="M154.238 56.351C154.909 56.2397 155.663 56.4108 156.231 57.1674C157.349 58.6586 160.913 63.1218 162.987 72.3793C165.063 81.6507 163.649 87.6062 162.477 93.6146L162.472 93.6381L162.465 93.6615C162.159 94.694 161.726 95.3755 160.986 95.6312C160.636 95.7519 160.267 95.7585 159.899 95.7162C159.532 95.674 159.131 95.5784 158.708 95.4681C158.506 95.4152 158.105 95.2689 157.578 95.0648C157.421 95.0037 157.25 94.9348 157.066 94.8617C158.727 90.557 159.641 85.8802 159.641 80.9896C159.641 72.3134 156.774 64.3072 151.936 57.8656C152.196 57.6059 152.449 57.355 152.693 57.1127L152.705 57.101L152.718 57.0902C153.045 56.806 153.604 56.4561 154.238 56.351ZM150.466 59.3285C154.942 65.3871 157.589 72.8789 157.589 80.9896C157.589 85.6077 156.728 90.0245 155.163 94.0912C153.568 93.4358 151.562 92.5975 149.406 91.6859C146.893 90.6237 144.172 89.4627 141.649 88.3812C142.479 86.0726 142.934 83.5843 142.934 80.9896C142.934 76.9243 141.822 73.1192 139.887 69.8597C143.462 66.3045 147.358 62.4243 150.466 59.3285ZM137.297 72.433C138.649 74.9872 139.416 77.8985 139.416 80.9896C139.416 83.0905 139.06 85.1082 138.409 86.9877C137.512 86.6016 136.674 86.2426 135.921 85.9174L135.912 85.9144L130.447 83.4359C129.959 83.3029 129.264 82.9739 128.972 82.3197C128.632 81.5594 128.949 80.6795 129.909 79.7504C130.674 79.0103 133.625 76.0821 137.297 72.433Z" fill="#314338"/>
</svg>
