<?xml version="1.0" encoding="iso-8859-1"?>
<!-- Generator: Adobe Illustrator 15.0.0, SVG Export Plug-In . SVG Version: 6.00 Build 0)  -->
<!DOCTYPE svg PUBLIC "-//W3C//DTD SVG 1.1//EN" "http://www.w3.org/Graphics/SVG/1.1/DTD/svg11.dtd">
<svg version="1.1" id="Layer_1" xmlns="http://www.w3.org/2000/svg" xmlns:xlink="http://www.w3.org/1999/xlink" x="0px" y="0px"
	 width="48px" height="40px" viewBox="0 0 48 40" style="enable-background:new 0 0 48 40;" xml:space="preserve">
<path style="fill-rule:evenodd;clip-rule:evenodd;fill:#314338;" d="M25.214,21.022c0,0.148-0.015,0.225-0.054,0.303
	c-0.108,0.179-0.334,0.326-0.662,0.326c-0.474,0-0.714-0.373-0.714-0.808c0-0.529,0.288-0.886,0.685-0.886
	C25.02,19.958,25.222,20.485,25.214,21.022z"/>
<path style="fill-rule:evenodd;clip-rule:evenodd;fill:#314338;" d="M28,19.581c0-2.239-1.639-4.035-3.881-4.092
	c-2.242,0.055-3.936,1.853-3.974,4.096c0,0.078,0.044,4.704,0.044,4.746c0,2.243,1.663,4.109,3.906,4.166
	C26.335,28.44,28,26.574,28,24.331C28,24.285,28,19.668,28,19.581z M25.539,23.603c-0.481,0.436-1.185,0.668-1.968,0.7
	c-0.195,0.015-0.571,0.006-0.571,0v-0.918c0,0.016,0.314,0.008,0.548,0c0.364-0.023,0.747-0.124,1.013-0.311
	c0.334-0.225,0.56-0.56,0.646-0.94l-0.012-0.007c-0.227,0.233-0.559,0.366-1.016,0.366c-0.855,0-1.569-0.592-1.569-1.579
	s0.791-1.819,1.904-1.819c1.298,0,1.911,0.995,1.911,2.177C26.425,22.328,26.091,23.09,25.539,23.603z"/>
<path style="fill-rule:evenodd;clip-rule:evenodd;fill:#314338;" d="M32,19.235c0-4.249-3.45-7.654-7.701-7.755
	c-4.25,0.1-7.633,3.506-7.703,7.757c-0.002,0.105-0.008,5.331-0.008,5.377c0,4.252,3.459,7.789,7.712,7.89
	c4.247-0.101,7.7-3.638,7.7-7.89C32,24.564,32,19.348,32,19.235z M27.704,28.194C26.757,29.161,25.662,30,24.31,30h-0.021
	c-1.354,0-2.621-0.835-3.57-1.803c-0.951-0.969-1.475-2.366-1.475-3.723c0-0.045,0.003-5.052,0.005-5.088
	C19.294,16.608,21.507,14,24.289,14h0.021c2.779,0,4.69,2.799,4.69,5.578c0,0.034,0,4.7,0,4.747
	C29,25.681,28.651,27.227,27.704,28.194z"/>
<path style="fill-rule:evenodd;clip-rule:evenodd;fill:#314338;" d="M13,13v19.655L18.223,40h12.057L36,32.655V12.591L30.279,5H18
	 M30.456,31.081C28.824,32.747,26.643,34,24.312,34H24.29c-2.331,0-4.514-1.255-6.148-2.923c-1.638-1.669-2.541-4.006-2.541-6.342
	c0-0.05,0.005-5.644,0.007-5.697C15.687,14.25,19.501,10,24.29,10h0.021c2.305,0,4.469,1.227,6.097,2.861
	c1.628,1.638,2.544,3.937,2.582,6.243c0.001,0.053,0.002,5.525,0.002,5.578C32.992,27.02,32.092,29.413,30.456,31.081z"/>
<polygon style="fill-rule:evenodd;clip-rule:evenodd;" points="12.194,32.654 12.194,32.653 12.194,32.655 "/>
<polygon style="fill-rule:evenodd;clip-rule:evenodd;" points="36.308,32.654 36.307,32.655 36.307,32.652 "/>
<circle style="fill-rule:evenodd;clip-rule:evenodd;fill:#314338;" cx="24.25" cy="5.858" r="2.822"/>
<rect x="23" style="fill-rule:evenodd;clip-rule:evenodd;fill:#314338;" width="2" height="5"/>
</svg>
