<svg xmlns="http://www.w3.org/2000/svg" xmlns:xlink="http://www.w3.org/1999/xlink" width="62" height="47" viewBox="0 0 62 47">
  <defs>
    <clipPath id="clip-Target_Loads">
      <rect width="62" height="47"/>
    </clipPath>
  </defs>
  <g id="Target_Loads" data-name="Target Loads" clip-path="url(#clip-Target_Loads)">
    <rect width="62" height="47" fill="#f3f8f4"/>
    <path id="Union-4" d="M13.7,6.388h-.034l-.051.451-.041.344-.008.067,0,.034h.051c.11.275.457,1.067.673,1.563.073.168.481.936-.38.92h-.55a8.826,8.826,0,0,0-.261,1.016,1.328,1.328,0,0,1-.6.887l-1.611.613c-.426.164-4.411,1.593-4.463,1.6v.032a2.409,2.409,0,0,1-.229.08c.032.077,4.31,3.186,4.966,3.633,1.2.939,1.428.221,1.518.071.189-.313.558-.935.708-1.208.356-.646,1.047-1.956,1.051-1.962h.006a.271.271,0,0,1,.045-.026c.107-.218,0-.129-.1-.051v.026h0l-.038.013-.013.013-.008-.005c-.014.036-.983,1.19-1.534,1.812a4.88,4.88,0,0,1-.765.775c-.062.006-.222-.051-.479-.28-.862-.595-3.162-2.194-3.295-2.267s-.542-.211.37-.458l.945-.348c.953-.345,3.267-1.194,4.187-1.533a2.483,2.483,0,0,1,.636-.18,2.255,2.255,0,0,1,.685.194,9.374,9.374,0,0,0,.742-.808h0a4.715,4.715,0,0,1,.809-1.024,3.741,3.741,0,0,1,1.065-.667c.055,0,.777-.166,1.014.462h.035l0,0c.014-.012.146-.142,1.6-1.289a5.258,5.258,0,0,1,1.7-.85L32.8,4.91,42.63,2.06c.932-.269,1.909-.681,2.174-.026a6.189,6.189,0,0,1,.26,1c.028.162.294.593-.957.875-.632.187-1.74.518-2.94.877-1.711.512-3.608,1.081-4.6,1.374-.353.1-1.183.309-1.282.706-.035.1-.105.271-.137.358a1.524,1.524,0,0,1-.725.767,17.41,17.41,0,0,1-2.478.8c0,.041-.035.378-.038.413a2.208,2.208,0,0,1-.583,1.3,6.005,6.005,0,0,1-1.6,1.051,5.619,5.619,0,0,0-.849.6,1.415,1.415,0,0,0-.212.388c-.16.422-3.1,7.24-3.6,8.108-.694,1.475-1.323,1.987-2.762,1.906-1.228-.168-4.723-.7-4.848-.711h0V21.8c-.37-.092-.375-.13-.377-.167s1.551-4.753,1.606-4.9c.087.022.893.292,1.585.522.342.114,1.45.428,1.784.029.173-.205.755-1.144,1.3-2.044.411-.673,2.032-3.227,2.519-4,.062-.1.381-.588.382-.592a.913.913,0,0,0-.482.1c-2.5.763-2.532.763-2.74.863,0,0-.15-.949,0,0s-.013,1.794-.756,2.151-1.564.391-1.907-.1c-.05.13-.067,1.252-.548,1.707a2.573,2.573,0,0,1-1.581.393h-.072c-.051.16-.08.259-.141.462-.267.892-1.191,3.893-1.4,4.479a10.552,10.552,0,0,1-1.967,3.5,1.024,1.024,0,0,1-.869.27,6.643,6.643,0,0,1-1.124-.217c-1.311-.363-5.332-1.6-5.478-1.635-.312-.075-.593-.156-.954-.275s-.81-.28-1.273-.485a16.6,16.6,0,0,1-2.179-1.178h-.1v-.051h-.1v-.051h-.1V20.52h-.1v-.051l-.046-.01L2.3,20.452a.423.423,0,0,0-.082-.008l0,0,.047.022,0,.007a.829.829,0,0,1,.177.147h0v.051H2.5a11.952,11.952,0,0,0,2.2,1.668,11.26,11.26,0,0,0,1.417.685,9.756,9.756,0,0,0,1.093.344c.225.059,5.732,1.707,5.739,1.707l-.005,0a.074.074,0,0,1,.031.023c.055.005.909.084.917.088l.03.015h0v.009c0,.167-.245,7.785-.246,7.793s0,.029,0,.043l-.006.2s0,.006,0,.009q0,.045,0,.09h-.051v.1h-.051v.077h-.051v.051h-.051v.051h-.077v.051h0l-.1.014v.037h-.07c-.856,0-7.251,0-13.035,0a.7.7,0,0,1-.783-.963c.234-1,.471-5.217.471-5.3,0-.166-.482-5.181-.617-7.607s.722-5.653,1.7-6.811A4.72,4.72,0,0,1,2.884,11.8a3.641,3.641,0,0,0,.753-.368c.726-.147.872-.951.555-1.668a9.3,9.3,0,0,1-.613-1.639,9.9,9.9,0,0,1,.126-4.2A3.964,3.964,0,0,1,5.172,1.784,4.336,4.336,0,0,1,7.357.8a5.7,5.7,0,0,1,3.324.459,6.98,6.98,0,0,1,1.7,1.393A7.352,7.352,0,0,1,13.1,3.827a.444.444,0,0,0,.107.255,7,7,0,0,0,1.177.38c.439.093,1.424.186,1.979.245.538.043,1.347.417.222,1.185a5.44,5.44,0,0,1-1.259.411,9.035,9.035,0,0,1-1.483.088C13.775,6.391,13.709,6.389,13.7,6.388Zm8.2,5.342a.6.6,0,0,1,0,.946.8.8,0,0,1-.968.218L20.8,13.1a.694.694,0,0,0,.614.292,1.4,1.4,0,0,0,.95-.57.711.711,0,0,0-.428-1.109c-.544-.057-.049,0-.049,0ZM6.7,7.694c.059.875.4,1.6.958,1.555.466-.038.971-.856.955-1.614C8.6,6.8,8.181,6.457,7.659,6.473,7.159,6.488,6.731,6.917,6.7,7.694Zm20.965,1.38c0,.006,1.8-.532,1.823-.536,0-.009-.519-.737-1.11-.536C27.678,8.142,27.678,9.036,27.666,9.074Z" transform="translate(10.328 8.767)" fill="#314338"/>
  </g>
</svg>
