<svg xmlns="http://www.w3.org/2000/svg" xmlns:xlink="http://www.w3.org/1999/xlink" width="62" height="47" viewBox="0 0 62 47">
  <defs>
    <clipPath id="clip-turkey">
      <rect width="62" height="47"/>
    </clipPath>
  </defs>
  <g id="turkey" clip-path="url(#clip-turkey)">
    <rect width="62" height="47" fill="#f3f8f4"/>
    <path id="Union-2" d="M12.19.734c.141.8.224,1.215.224,1.215.014.082.291,2.847.469,3.893-.006-.905-.055-4.076-.087-4.93,0-.121-.076-.944.364-.857a14.482,14.482,0,0,1,2.4.787.836.836,0,0,1,.273.736c-.042.5-.5,3.807-.5,3.94v.153l.7-2.97s.188-1.234.673-.882.376.314.376.314.9.892,1.259,1.334a1.555,1.555,0,0,1,.2,1.2h0v0a5.022,5.022,0,0,1-.2.494v0h0l-.027.06c-.031.126-.954,1.754-.951,1.752l1.034-1.2.21-.247c.017-.036.444-.65.728.086l.013.023a1.411,1.411,0,0,1,.11.191c.024.042.6,1.335.617,1.49.016.094.011.185-.245.661-.256.3-.49.37-.638.538-.52.37-.51.5-.019.534-.106.043,1.629-.175,2.622-.205,4.929-.126,6.71,2.182,7.181,2.558l.786.265c.863-.19.745-1.509.318-2.13a8.37,8.37,0,0,1-.743-1.344A8.947,8.947,0,0,1,28.8,4.47a3.322,3.322,0,0,1,1.158-2l0-.007.01-.007a4.643,4.643,0,0,1,2.159-.831,4.137,4.137,0,0,1,1.667.337h.022l0,.012a3.276,3.276,0,0,1,.351.189,4.706,4.706,0,0,1,.743.721,4.447,4.447,0,0,1,.317.457,1.438,1.438,0,0,0,.38.666c.153.12.556.4.926.662a4.526,4.526,0,0,1,.849.694,2,2,0,0,1,.188.559c0,.006-.069.24-.188.282-.158.055-.413-.076-.49-.1l-.138-.046a5.452,5.452,0,0,0-1.147.013,2.26,2.26,0,0,0-.692.208l0,.006s-.649.43-.585,1,1.506.99,1.364,2.844c0,0,.005.675-.336.791s-.95-.259-1.028-.325a.181.181,0,0,0-.044-.008c.089.23.188.454.292.676a.533.533,0,0,1,.062.064,6.474,6.474,0,0,1,1.134,2.259,18.385,18.385,0,0,1,.449,3.819c0,.026.057,4.869-2.139,7.528A9.587,9.587,0,0,1,27.9,27.871c-.271,0-1.583.363-1.813.914a1.643,1.643,0,0,1-.88.785l-.029.024a.562.562,0,0,1-.041.045l-.127.1a19.539,19.539,0,0,0,1.7,3.525,2.076,2.076,0,0,0,1.418.416,4.308,4.308,0,0,1,1.821.345l.019,0,0,.009a4.494,4.494,0,0,1,.823.855c.009.028.018.057.026.088h0s0,.188-.376.128a7.172,7.172,0,0,1-1.109-.367,1.659,1.659,0,0,0-.719.088l.055.052a2.538,2.538,0,0,1,.421.632.556.556,0,0,1,.025.267h0s.251-.264,0,0-.776-.047-.84-.07a6.951,6.951,0,0,0-2.8-.969c-.163-.011-1.813-.071-1.475-.636l.015-.022h0a.874.874,0,0,1,.076-.09l.014-.015a6.367,6.367,0,0,1,1.152-.451,1.8,1.8,0,0,0-.2-.748l0,0-.029-.051c-.008-.015-.907-1.487-1.446-2.153l-.678-1.3a2.062,2.062,0,0,1-.058-.576l.027-.322.065-.3c-.045.015-.062-.024,0-.008l.012-.047A3.328,3.328,0,0,0,22.036,28l-.17.048-.018.017h0a14.063,14.063,0,0,1-1.327,1.117l-1.177.887h-.021l-.029.05.06.238c.056.144.962,3.61,1,3.659a.787.787,0,0,0,.2.128l.087.03.009,0h0a12.757,12.757,0,0,1,1.792.3,4.375,4.375,0,0,1,1.436.551c.441.263.33.5.33.5a1.732,1.732,0,0,1,0,.25h0a0,0,0,0,1,0,0l-.062,0a8.708,8.708,0,0,0-2.042-.3,1.482,1.482,0,0,1,.451.451.624.624,0,0,1,0,.481v.019h0a0,0,0,0,1,0,0l-.059.012a2.626,2.626,0,0,1-.591-.056l-.126-.047a6.8,6.8,0,0,0-1.974-.631,9.686,9.686,0,0,0-2.309.02h0a1.49,1.49,0,0,1-.206-.047l-.11-.03-.084-.023v-.151l.013.027a.9.9,0,0,1,.022-.1.556.556,0,0,1,.065-.182l.006.011a1.249,1.249,0,0,1,.2-.262l.048-.05.056-.037.045-.029c.016-.011,1.008-.532,1.065-.56l.025-.011.11-.064,0,0a.58.58,0,0,0,.05-.154l-.687-2.6c-.3-1.015-.593-2-.608-2.055l-.008.005h0c-.128-.463.035-.842.192-.852l.069-.032.027-.015a27.339,27.339,0,0,0,4.361-3c.3-.258.876-.869,1.441-1.492.285-.314,1.912-1.5,2.16-2.7a6.427,6.427,0,0,0-.762-3.867c-.008-.005-.351-.5-.382-.545q-.092-.113-.194-.222c.046.117.4.939.4.952l-.008.024a6.354,6.354,0,0,1,.58,3.658c-.244,1.047-1.762,1.977-2.089,2.377a12.8,12.8,0,0,1-1.421,1.5,22.388,22.388,0,0,1-4.529,2.974l-.1.039-.011-.005-.082.041-.008.014a8.409,8.409,0,0,1-1.013.514.383.383,0,0,1-.063.02l-.026.017-.024-.008c-1.412.664-1.565.72-2.109.675a.424.424,0,0,1-.137-.012l-.036,0-.069-.052-.062-.045-.01-.024-.01-.027c-.014-.025-.028-.057-.048-.1a8.813,8.813,0,0,1,.752-1.6l0,0,.071-.11a.783.783,0,0,1,.057-.066l.02-.028c-.142.111-.632.56-.7.6A10.286,10.286,0,0,1,10.3,29.772a.881.881,0,0,1-.359-.057l-.027-.023a.408.408,0,0,1-.142-.178q0-.046.008-.092a.429.429,0,0,1,.03-.149,1.49,1.49,0,0,1,.119-.3v-.008c.017-.029.034-.056.051-.082.072-.121,1.512-1.725,1.541-1.752a.721.721,0,0,1,.1-.1c.03-.038.056-.079.105-.157-.133.113-3.082,1.673-3.626,1.6l-.073-.009a.61.61,0,0,1-.12-.074.176.176,0,0,1-.021-.024l-.008,0,0-.015-.017-.029-.029-.056a1.087,1.087,0,0,1,.095-.548A1.57,1.57,0,0,1,8,27.548l.017-.032.008-.01c.086-.137,1.266-1.419,1.539-1.652l.088-.077c.116-.1.23-.208.344-.313l.082-.076.142-.13-1.367.289c-.393-.017-.538-.094-.275-.582l1.879-3.389s.44-.67.973-1.343,1.106-1.258,1.161-1.348l.016-.016c.034-.046.624-.7.639-.713.021-.035.039-.07.057-.108-.145-.021-1,.722-1.032.75l0,0s-1.817,1.981-1.9,2.07c-.056.062-.988,1.27-1,1.287h0a1.06,1.06,0,0,1-.22-.019,2.945,2.945,0,0,0-.31-.03.819.819,0,0,0-.151.056l-.007.006-.026.042a3.7,3.7,0,0,1-.285.293v0L5.664,24.973a.768.768,0,0,1-1.1-.1L3.194,22.731a.574.574,0,0,1,.261-.908l3.562-1.917c-.1.041-3.757,1.436-3.808,1.457a.785.785,0,0,1-1.172-.553l-.822-2.587c-.23-.973.59-.976.97-1.028L6.029,16.7H4.771l-3.18-.017a.871.871,0,0,1-.773-.834L.792,13.157c0-.372.547-.776,1.12-.67l2.247.457c.964.2,1.673.329,1.757.344l-.119-.03c-.076-.02-.593-.252-1.667-.61l-2.524-.922a1.185,1.185,0,0,1-.41-1.271l.689-2.21c.145-.446.407-.577.924-.355L5.726,9.577l.511.3c.037.023,1.083.6,1.047.575L6.139,9.587,5.8,9.327,2.914,6.972c-.3-.25-.352-.453-.113-.917l1.157-1.71c.264-.386.779-1.111,1.5-.08L8.216,7.392l.5.5-.582-.77C7.781,6.658,5.584,3.4,5.56,3.365l-.045-.1,0-.008c-.017-.034-.033-.067-.046-.1l-.008.008-.038-.137c-.024-.3.042-.536.472-.87l1.877-1.01a.528.528,0,0,1,.7.163v.01c.157.235,1.847,4.266,1.9,4.4l.314.651c-.016-.062-1.546-4.912-1.573-5.019l-.03-.111c-.028-.114-.063-.875.45-1s1.637-.4,1.637-.4C11.8-.235,12.049-.063,12.19.734ZM10.275,25.177v.034h0C10.313,25.2,10.327,25.142,10.275,25.177Z" transform="translate(11.814 7.766)" fill="#314338"/>
  </g>
</svg>
