<svg xmlns="http://www.w3.org/2000/svg" xmlns:xlink="http://www.w3.org/1999/xlink" width="62" height="47" viewBox="0 0 62 47">
  <defs>
    <clipPath id="clip-Upland_Game">
      <rect width="62" height="47"/>
    </clipPath>
  </defs>
  <g id="Upland_Game" data-name="Upland Game" clip-path="url(#clip-Upland_Game)">
    <rect width="62" height="47" fill="#f3f8f4"/>
    <g id="Vector" transform="translate(30.495 -126.349)">
      <path id="Path_13" data-name="Path 13" d="M511.818.209l-.007.014a.828.828,0,0,1,.164.354l.013-.029V.718h.113l.056.169.07-.1c.013-.018.253-.335.382-.353.016-.107.2-.044.259-.011a.431.431,0,0,1,.292.284l.017.026c.006.025.012.05.017.073a1.68,1.68,0,0,1-.006.466l.011.016.032-.064.032-.048.024-.121a.042.042,0,0,0,.056,0,1.972,1.972,0,0,0,.192.28,1.175,1.175,0,0,0,.2.116c.042.125.052.158.034.215a5.961,5.961,0,0,1-.768.971l-.027,0c-.026.017-.162.1-.2.115l0,0,.127.05q.074.03.147.065v0a9.728,9.728,0,0,1,1.757,1.5,3.516,3.516,0,0,1,.314,1.4c-.742,3.058.618,4.188,1.577,5.26.122.082,2.582,1.288,3.7,1.912a16.914,16.914,0,0,1,2.986,2.068,19.1,19.1,0,0,1,2.855,3.331c.381.552,1.807,3.777,3.287,5.936a54.226,54.226,0,0,0,4.923,4.853c.14.128.273.257.4.4l0,.007a1.13,1.13,0,0,1,.173.275.642.642,0,0,1-.04.252.267.267,0,0,1-.068.135l0,.009-.023.018c-.018.017-.04.036-.066.059s-.073.036-.11.051a10.167,10.167,0,0,1-3.92-.8,25.077,25.077,0,0,1-2.891-2.025,18.062,18.062,0,0,0-2.052-.667,12.245,12.245,0,0,1-1.842.891,6.209,6.209,0,0,1-2.087.269l-.057.169h-.108c0,.026,0,.054,0,.082l0,.076c0,.056,0,.111-.006.166q0,.035,0,.071l0-.006c0,.029-.006.057-.01.086-.017.146-.451,2.8-.454,2.885s.008.212.016.368l.037.033a.665.665,0,0,1,.107.067l.251.126v0q.075.027.151.052h.018v.005l.259.081c.041.018.078.036.113.054a1.377,1.377,0,0,1,.305.2,1.144,1.144,0,0,1,.055.1l0,.006,0,0a.439.439,0,0,1,.04.138c0,.013,0,.027,0,.04l.006.023c0,.015,0,.03,0,.043,0,.038,0,.082,0,.151l-.042.055-.029.04-.027.019c-.017.014-.039.031-.071.055l-.079.008c-.129.03-4.413.028-4.572.028l-.143,0a1.652,1.652,0,0,1-.345-.037l0,0a.571.571,0,0,1-.166-.278.847.847,0,0,1,.023-.088.66.66,0,0,1,.09-.194l.008,0a.971.971,0,0,1,.1-.119c.019-.034.04-.068.063-.1.021-.015.042-.03.064-.043l.063-.045a3.576,3.576,0,0,1,1.245-.236l.279-.029.165-.017.119-.02c.077-.021.165-.048.286-.088a.741.741,0,0,0,.143-.151c.033-.091.374-3.093.361-3.2,0-.025-.006-.051-.009-.076s-.013-.061-.02-.091a1.056,1.056,0,0,1-.041-.351l-.11-.007q-.154-.012-.3-.03L519.5,28V27.99c-.207-.029-.413-.065-.619-.1h0l-.127-.025-.194-.037a8.61,8.61,0,0,1-.922-.22c.009.029.019.058.028.088,0,.013.005.026.007.039a1.33,1.33,0,0,1,.021.208c0,.094,0,.189,0,.286l-.024-.024a1.266,1.266,0,0,1-.047.166.208.208,0,0,1-.029.13l-.1.16c-.012.021-1.756,2.939-1.783,2.99l-.045.082-.009.019c-.013.028-.023.05-.031.069a.54.54,0,0,0,.009.183.442.442,0,0,0,.136.135,1.313,1.313,0,0,0,.341.1v.094l.113.019.019.037a.872.872,0,0,1,.118.071l.033,0a1.011,1.011,0,0,1,.225.338h0c0,.033,0,.063,0,.089,0,.008,0,.016,0,.024a.4.4,0,0,1-.02.088.376.376,0,0,1-.015.036l-.016.045-.008,0a.827.827,0,0,1-.076.1.61.61,0,0,1-.155.056l-.008,0-.022,0a.446.446,0,0,1-.106.009,1.494,1.494,0,0,1-.237-.022l-.15-.015-.142-.016v-.009l-.068-.008q-.168-.018-.336-.029a3.065,3.065,0,0,0-.75.046c-.38.064-3.217.072-3.281.071h-.166a.8.8,0,0,1-.371-.127.7.7,0,0,1,.063-.5l-.007-.013.072-.074a1.1,1.1,0,0,1,.211-.208h.056l.056-.113.052.009,0-.009a3.089,3.089,0,0,1,.984-.13c.235-.013.47-.019.7-.029l.216-.011.2-.007.144-.006.176-.014.094-.006-.087-.022.176-.021a.71.71,0,0,0,.1-.035h-.049v-.113l.092.091a.457.457,0,0,0,.065-.044q.029-.026.057-.055a1.3,1.3,0,0,0,.136-.2c.054-.1,1.51-2.847,1.571-3.011h-.113l.057-.282-.151-.114c-.037-.028-1.111-.88-2.181-1.726a40.823,40.823,0,0,1-3.725-3.183,8.413,8.413,0,0,1-1.374-2.073,11.822,11.822,0,0,1-.77-5.268,14.971,14.971,0,0,1,1.249-4.528,5.709,5.709,0,0,0,.377-4.01,1.6,1.6,0,0,0-1.015-.724,6.4,6.4,0,0,0-1.6-.143l-.191-.012a.47.47,0,0,1-.205-.056L506,6.479l.016-.046L506,6.422l.832-1.019,1.344-1.075a3.206,3.206,0,0,1,.791-1.163,5.867,5.867,0,0,1,1.451-.877c.054-.055.109-.109.165-.163a1.425,1.425,0,0,0,.195-.308,2.854,2.854,0,0,0,.138-.434,3.533,3.533,0,0,0,.1-1c-.048-.487.327-.421.5-.377A.631.631,0,0,1,511.818.209Zm12.2,24.546c.542.015.841-.089.286-.181a15.833,15.833,0,0,1-5.029-1.133,15.849,15.849,0,0,1-4.636-2.783,12.851,12.851,0,0,1-1.785-2.653,5.345,5.345,0,0,1-.355-3,5.179,5.179,0,0,0-.169,3.219,7.925,7.925,0,0,0,2.1,3.037A15.223,15.223,0,0,0,519,23.78,13.935,13.935,0,0,0,524.014,24.756Z" transform="translate(-506.326 137)" fill="#314338" fill-rule="evenodd"/>
      <path id="Path_29" data-name="Path 29" d="M22.872,61.982l.276.746.017.074a6.875,6.875,0,0,1,1.683.953,2.69,2.69,0,0,1,.524,1.218,6.906,6.906,0,0,1,1,.539,1.525,1.525,0,0,1,.649,1.052,5.69,5.69,0,0,0-1.1-.094c-.376.034-1.991.5-2.135,1.521a6.1,6.1,0,0,0,.2,1.928,11.612,11.612,0,0,1,1,4.58c-.051.845-.51,4.143-2.342,6.061a9.084,9.084,0,0,1-2.806,1.892c-1.366.627-4.149,1.317-4.278,1.465l-.223.287-.006,0c-.049.056-.1.109-.152.162l-.092.122q.051.083.1.165a.46.46,0,0,1,.057.087c.033.051,1.614,2.33,1.617,2.356l.043.064.026.039h.012c.046.063.066.091.087.123a.427.427,0,0,0,.035.027c.025.018.057.038.1.066a.545.545,0,0,0,.188.009v.037c.174.042,2.394.183,2.86.607a1.239,1.239,0,0,1,.252.383.275.275,0,0,1,.031.169h0l-.066,0h-.031l-.043,0h-.122l-.007-.013a.7.7,0,0,1-.14-.043l-.066-.025-.1-.033c-.137-.04-.276-.068-.416-.1L19.4,88.38l-.168-.037c-.121-.022-.242-.04-.365-.053l-.082-.008.15.075v0l.062.034h.012a.656.656,0,0,1,.11.061l.039.014.015.03,0,0c.061.041.468.428.506.454v.075c.012.087.024.175.037.262-.348-.06-3.1-.785-3.293-.776a1.2,1.2,0,0,1-.274-.01h-.063l.02-.011a.586.586,0,0,1-.226-.127l-.084-.082a.938.938,0,0,0-.093-.076q-.04-.024-.082-.047l-.229-.09-.126-.049a2.117,2.117,0,0,0-.229-.071l-.036-.008V87.72l.075.037v.075l.135-.034.176-.043.089-.023.086-.021.079-.02.042,0c.083-.023.165-.048.247-.077l-.031-.077h.075l-.049-.063-.063-.082-.063-.081c-.015-.022-.025-.038-.033-.051l-.016-.022,0-.008a.134.134,0,0,1,0-.024l-.025-.035-.014-.008v-.011l-.051-.07c-.032-.029-1.845-2.389-1.884-2.458a.176.176,0,0,1-.055-.11l-.011-.027-.02.02a.738.738,0,0,1-.034-.158,1,1,0,0,1-.008-.223c0-.048,0-.1,0-.144s0-.073,0-.111h0c0-.012,0-.025,0-.037H12.5v-.075a.948.948,0,0,0-.449,0c-.095.1-.66.89-.609,1.007l.01,0,1.212,2.923.648.142.1.017.2.034.306.053.009,0,.11.009v.01l.076.013.092.016a2.31,2.31,0,0,0,.468.036v.075l.14.009q.08.009.157.024l.039,0,0,0a1.8,1.8,0,0,1,.524.2l0-.016.025.013a.237.237,0,0,1,.035.021,2.1,2.1,0,0,1,.239.191l0,0a2.539,2.539,0,0,1,.254.249l.012.011v0q.038.043.074.087a.985.985,0,0,1,.054.09.956.956,0,0,1,.06.12,1.2,1.2,0,0,1,0,.187l-.224-.056-.037,0a.279.279,0,0,1-.092-.029l-.1-.024-.089-.022-.554-.135-.217-.053-.137-.033-.039-.01-.05-.009,0,0a3.943,3.943,0,0,0-.408-.069l-.044,0,.058.04,0,0a.5.5,0,0,1,.06.044,1.44,1.44,0,0,1,.5.581,1.018,1.018,0,0,1,.047.134.231.231,0,0,1-.023.146l-.012.025c-.076-.023-.15-.049-.223-.075h0l-.026-.01-.015-.006c-.119-.043-.236-.09-.354-.138a.547.547,0,0,1-.167-.07V89.51l-.078-.028c-.045,0-1.429-.607-1.57-.67a.252.252,0,0,0-.185-.045v-.075l-.21.035c-.042.007-1.919.245-2.087.341a.548.548,0,0,1-.1.073H9.807l.037-.337h.013V88.8c.007-.033.013-.056.018-.074a.287.287,0,0,1,.017-.053,1.556,1.556,0,0,1,.063-.165l.079-.026.006-.043c.019-.055.025-.072.048-.093a.335.335,0,0,1,.109-.071.846.846,0,0,1,.1-.038,1.024,1.024,0,0,1,.222-.058v-.008l.253-.019.142-.01h.027a2,2,0,0,0,.453-.129h0a1.884,1.884,0,0,0,.355-.214c-.019-.038-1.505-2.913-1.552-3h0l-.019-.028v0l-.02-.035-.069-.11q-.023-.034-.045-.067l0,0-.005-.007-.006-.008-.01-.014,0-.005a1.172,1.172,0,0,1-.177-.584c0-.023,0-.045,0-.068v-.029h0a2.128,2.128,0,0,1,.057-.316l.015-.058L9.8,83.436c-.053-.008-1.773-.411-2.009-.48a3.371,3.371,0,0,1-.7-.217q-.644-.208-1.278-.445h0c-.1-.027-.191-.057-.286-.091l-.08-.027-.111-.039a.775.775,0,0,0-.352.01,5.242,5.242,0,0,1-1.537,1.194,20.076,20.076,0,0,1-2.7,1.121c-.327.064-1.816.056-.342-1.316a24.667,24.667,0,0,0,2.383-2.194c.787-.972,3.389-6.58,6.275-8.735a15.716,15.716,0,0,1,5.875-2.486,3.145,3.145,0,0,0,2.588-1.473,27.735,27.735,0,0,1,.882-3.137c.4-.98,1.977-2.435,3.379-2.244H21.8l.131-.014c.123-.009.246-.017.37-.022q-.023-.047-.047-.093l-.028.056-.037-.112.047.024a2.458,2.458,0,0,0-.831-1.06,4.4,4.4,0,0,0-.991-.491c-.239.114-.737-.646.319-.956S22.5,61,22.872,61.982ZM19.128,73.3V73.3c0,.095,0,.183-.007.269a1.964,1.964,0,0,1-.035.3h-.025l-.013.037,0,.057a5.974,5.974,0,0,1-1.006,2.977A9.55,9.55,0,0,1,14.6,79.6a16.7,16.7,0,0,1-5,1.208q-.676.055-1.359.068c.259.048.516.1.777.125l.271.024v.036l.037,0h0c.191,0,.38,0,.569.006a20.546,20.546,0,0,0,4.845-1.2,9.21,9.21,0,0,0,3.439-2.718A6.546,6.546,0,0,0,19.2,73.839h.026q0-.168-.006-.337h-.057v-.225h-.03Z" transform="translate(-28 80.682)" fill="#314338" fill-rule="evenodd"/>
    </g>
  </g>
</svg>
