<?xml version="1.0" encoding="iso-8859-1"?>
<!-- Generator: Adobe Illustrator 15.0.0, SVG Export Plug-In . SVG Version: 6.00 Build 0)  -->
<!DOCTYPE svg PUBLIC "-//W3C//DTD SVG 1.1//EN" "http://www.w3.org/Graphics/SVG/1.1/DTD/svg11.dtd">
<svg version="1.1" id="Layer_1" xmlns="http://www.w3.org/2000/svg" xmlns:xlink="http://www.w3.org/1999/xlink" x="0px" y="0px"
	 width="48px" height="40px" viewBox="0 0 48 40" style="enable-background:new 0 0 48 40;" xml:space="preserve">
<path style="fill-rule:evenodd;clip-rule:evenodd;fill:#314338;" d="M34.728,11.607c-2.258,1.327-3.881,3.898-3.714,7.661
	c0.069,1.517,0.425,2.845,0.674,4.214c-0.701,0.457-1.314,1.037-1.778,1.693c-0.79,1.116-1.145,2.427-1.029,3.789
	c0.054,0.607,0.275,1.22,0.488,1.815c0.033,0.092,0.071,0.195,0.108,0.305c-0.732,0.601-1.591,1.103-2.533,1.518
	c-0.6,0.265-1.234,0.496-1.883,0.697c-3.49,1.073-7.569,1.293-10.383,1.293c-0.853,0-2.348,0.519-2.783-0.767
	c0.356-1.122,1.947-0.814,2.783-1.379c-2.805-0.436-3.115-1.793-3.927-4.436c-0.257,3.239-0.646,4.462-2.481,6.582
	c-1.644-0.203-4.364,0.671-4.109-1.074c0.151-1.016,1.388-0.61,2.386-0.918c1.435-1.869,2.075-3.283,1.156-9.501
	c-0.405-2.745-2.327-4.869-1.872-8.123c0.044-0.298,0.064-0.539,0.078-0.761c-0.119-0.281-0.231-0.531-0.326-0.713
	c-1.967,0.26-3.405-0.207-4.37-1.09c0.797-0.983,1.877-1.359,2.377-2.617c0.25-0.631,0.793-2.864,0.842-3.345
	C4.495,5.842,3.703,3.71,3.589,3.399C3.357,2.774,2.392,2.205,3.052,1.508c1.637,0.485,2.304,1.887,3.143,3.127
	c0.784-0.023,1.27,0.423,1.841,0.362c0.841-0.086,1.838-4.63,2.049-4.653c1.103,1.934,2.019,4.75,1.825,7.49
	c-0.005,0.085-0.017,0.168-0.028,0.251c0.532,2.662,0.789,6.228,3.243,7.659c2.193,1.276,4.455,1.468,6.395,3.646
	c1.94,2.178,3.047,5.698,1.115,10.131c3.331-3.228,1.898-5.76,1.354-8.107C23.522,14.313,28.08,9.776,34.728,11.607z"/>
<path style="fill-rule:evenodd;clip-rule:evenodd;fill:#314338;" d="M30.892,32.391c0.179-0.978-0.752-2.462-0.843-3.526
	c-0.203-2.354,1.357-4.07,3.065-4.831c0.313-0.138,1.587-0.822,3.834-0.842c2.249-0.021,2.334-3.396,2.686-3.737
	c0.621-0.604,1.074,1.431,1.64,1.641c0.306,0.113,0.992,0.029,1.466,0.122c1.033,0.202,1.782,0.622,2.49,1.381
	c0.475,0.511,0.945,1.487,0.843,1.987c-0.1,0.483-0.612,0.385-1.072,0.612c-1.285,0.634-3.139,2.317-1.611,3.745
	c0.314,0.294,2.286,0.943,2.511,0.997c0.672,0.157,1.637-0.248,1.765,0.537c0.249,1.562-4.2,0.663-5.503,0.996
	c-0.546,0.14-1.718,0.591-1.762,1.073c-0.083,0.921,1.502,0.682,1.531,1.687c0.046,1.462-4.5,0.902-5.749,0.844
	c-1.016-0.049-1.914-0.145-2.763-0.228c0,0,0.071,0.027-0.002-0.001c-1.869-0.723-11.567,1.007-6.396,1.459
	c2.22,0.071,3.244,0.763,4.162,1.423c0.919,0.657,1.354,1.884,1.354,1.884s-0.157-0.196-0.349-0.428
	c-3.917-3.733-6.052-0.853-7.925-2.542c-1.814-2.601,6.35-3.578,6.35-3.578L30.892,32.391z"/>
</svg>
