<svg xmlns="http://www.w3.org/2000/svg" xmlns:xlink="http://www.w3.org/1999/xlink" width="62" height="47" viewBox="0 0 62 47">
  <defs>
    <clipPath id="clip-Waterfowl">
      <rect width="62" height="47"/>
    </clipPath>
  </defs>
  <g id="Waterfowl" clip-path="url(#clip-Waterfowl)">
    <rect width="62" height="47" fill="#f3f8f4"/>
    <g id="duck" transform="translate(13.749 4.523)">
      <path id="Path_30" data-name="Path 30" d="M3.707,0c.039.006.067.01.088.015l.038,0,.011.016.012.008A.488.488,0,0,1,3.9.078L3.914.1l.014.021h0v0c.15.229,1.923,5.093,9.418,11.685.1.087,2.1,1.885,2.075,3.428a7.684,7.684,0,0,0,.717,2.508c.227.436,2.128,3.6,4.313,3.887,1.914.254,5.229-1.242,6.156-2.16.856-.846.955-2.4,1.813-3.73a4.79,4.79,0,0,1,3.969-2.1c1.516.115,3.48,2.039,3.524,2.129a1.208,1.208,0,0,1,.055.131l.009.015.008.014h0l.009.027a.244.244,0,0,1,.039.117v0h0c0,.008,0,.017,0,.026a3.447,3.447,0,0,0,2.074,1.392c1.531.425,2.54.481,2.5.8s-1.194.594-1.194.594l-.994.141c-1.8.036-5.281-.463-7.006.645a4.867,4.867,0,0,0-2.759,3.842,10.852,10.852,0,0,1-2.636,6.449c-1.968,1.967-5.355,2.846-7.6,3.26-.585.111-7.075,1.221-7.567,1.207h0l-.013-.053-.036,0,.018-.074c-.005-.078,1.195-1.249,1.258-1.4h0l-.008.005-.063.043-.316.218a24.227,24.227,0,0,1-3.431,3.071A8.705,8.705,0,0,1,5.172,37.6l-.112.01-.069.005-.065,0-.075,0q-.148.007-.3.008l-.311,0H3.86c-.044,0-.089-.01-.132-.018H3.686l0-.009L3.648,37.6a.9.9,0,0,1-.133-.042c-.025-.005-.053-.013-.09-.024s-.045-.036-.063-.053l-.02-.011c-.014-.017-.025-.032-.036-.047s-.026-.027-.038-.042-.012-.055-.016-.08v0l-.007-.023a.734.734,0,0,1-.005-.127v-.018l.007-.019a.684.684,0,0,1,.028-.081l.02-.051.049-.049.008,0,.041-.032c.027-.021.055-.041.083-.059.16-.119.216-.147.308-.154v0l.008-.046,0-.04c.006-.024.011-.046.017-.066a.6.6,0,0,1,.069-.192l.023.016a.828.828,0,0,1,.073-.071l.051-.043c.085-.048.172-.093.26-.136s.153-.072.231-.106v0a1.722,1.722,0,0,1,.163-.064c.286-.115.579-.213.871-.309a3.647,3.647,0,0,0,1.877-.707,3.487,3.487,0,0,0,.881-1.77l.041-.183c.018-.064.029-.1.043-.135a.64.64,0,0,1,.052-.121h-.2l-.009.021-.2.439h0c-.012.025-.556,1.1-.61,1.13l-.083.032a.45.45,0,0,1-.075.038l-.123.04-.091.03c-.113.043-1.241.358-1.361.376v0c-.551.1-.68.118-.828.045a1.452,1.452,0,0,0-.145.018l-.077.015-.03.019a3.057,3.057,0,0,1-1.2.161H3.4l-.017,0q-.056-.005-.112-.013a4.274,4.274,0,0,1-.655-.321l-.007-.119.04-.049H2.616l-.114,0c-.08,0-.158-.008-.235-.013l-.105,0a1.077,1.077,0,0,1-.2-.027A10.829,10.829,0,0,1,.9,34.134L.862,34.1l-.024-.018h0a.933.933,0,0,1-.126-.161l0-.008,0-.005L.691,33.89c0-.023,0-.042,0-.059s0-.026,0-.041v-.026c.006-.013.012-.025.019-.036s.011-.027.018-.044l.018-.04.147-.1.013.019.033-.013,0-.006.007,0c.018-.007.755-.293.842-.33a11.9,11.9,0,0,0,3.388-1.935,9.577,9.577,0,0,0,1.7-2.1,7.732,7.732,0,0,1,1.366-1.78,8.416,8.416,0,0,1,1.922-1.267l0-.007h0l.021-.019.049-.052c.009-.017.018-.034.025-.051v-.124l-.136.084a10.781,10.781,0,0,1-1.107.318l-.033-.01a1.217,1.217,0,0,1-.111-.076l0,0a4.027,4.027,0,0,1-1.185-1.237,34.866,34.866,0,0,1-2.559-5.353c-.058-.246-.106-.492-.142-.739-.037-.192-.068-.385-.091-.58,0-.035-.008-.071-.012-.107-.006-.057-.01-.114-.014-.171-.02-.04-.048-.087-.085-.15Q4.69,17.834,4.6,17.8l-.076-.025-.1-.035h0c-.094-.043-.188-.089-.28-.138l-.066-.034-.047-.025h0v0l-.086-.051-.014,0h0a2.631,2.631,0,0,1-.839-.782l-.044-.053,0-.011q-.027-.043-.052-.088H3L2.98,16.5q-.017-.042-.031-.085c0-.017,0-.033,0-.048a1.319,1.319,0,0,1,0-.149c.017-.027.033-.052.05-.074a.213.213,0,0,1,.024-.042.781.781,0,0,1,.067-.09l0,0h0a1.355,1.355,0,0,1,.632-.22l.056-.013-.092-.039L3.609,15.7a6.556,6.556,0,0,1-1.465-.982,4.4,4.4,0,0,1-.9-1.277.5.5,0,0,1,0-.155l.024-.073.013-.04a.5.5,0,0,1,.048-.021.515.515,0,0,1,.059-.019,1.131,1.131,0,0,1,.439,0c.075.011.15.024.219.035l.135.02.043.006.092.014.092.014.146.022.041.006.128.02.31.048-.016-.013-.127-.062c-.115-.058-.233-.119-.353-.184l-.078-.033,0-.007c-.082-.046-.164-.093-.246-.142l0,0v0a5.931,5.931,0,0,1-1.351-1.4A5.416,5.416,0,0,1,.2,9.7V9.689l.054-.035,0-.014A.373.373,0,0,1,.33,9.61.315.315,0,0,1,.483,9.6c.03.008.058.017.086.026l.008,0,.065.014-.008.008.011,0a2.335,2.335,0,0,1,.341.178l.073.043c.077.045,1.423.7,1.445.708q.246.1.495.187l-.064-.052A10.425,10.425,0,0,1,1.744,9.71l-.022-.02-.11-.1A5,5,0,0,1,.569,8.232,7.265,7.265,0,0,1,0,6.4q0-.044,0-.088s0,0,0,0q0-.025,0-.049c0-.036,0-.072.006-.106l0-.047H.012c0-.016.005-.032.009-.048A1.133,1.133,0,0,1,.045,5.94l.008-.03.1-.1H.206C.229,5.807.258,5.8.3,5.8a.606.606,0,0,1,.138.042l.023.01.035.006v.011a.787.787,0,0,1,.1.07l.024.023c.059.049.115.105.173.163a.755.755,0,0,1,.176.132c.126.115.255.223.388.327l.018.011h0c.036.028,1.192.871,1.214.888l.348.242.012,0a.994.994,0,0,1,.209.12l.074.05c-.107-.133-.216-.262-.328-.39q-.127-.142-.249-.288a4.865,4.865,0,0,1-1.327-1.9,6.885,6.885,0,0,1-.255-2.608,1.445,1.445,0,0,1,.109-.288s0,0,0,0l.049-.049.012-.006a.358.358,0,0,1,.069-.024.191.191,0,0,1,.032-.011.542.542,0,0,1,.125-.008.72.72,0,0,1,.081.031.594.594,0,0,1,.1.059c.043.03,2.8,3.132,2.887,3.22l.078.077,0-.006-.076-.129q-.065-.113-.129-.225L4.4,5.333l-.024-.012V5.294a6.132,6.132,0,0,1-1.14-2.581C3.066,1.39,3.223.077,3.707,0Z" transform="translate(-3.952 0.038)" fill="#314338"/>
    </g>
  </g>
</svg>
