<?xml version="1.0" encoding="iso-8859-1"?>
<!-- Generator: Adobe Illustrator 15.0.0, SVG Export Plug-In . SVG Version: 6.00 Build 0)  -->
<!DOCTYPE svg PUBLIC "-//W3C//DTD SVG 1.1//EN" "http://www.w3.org/Graphics/SVG/1.1/DTD/svg11.dtd">
<svg version="1.1" id="Layer_1" xmlns="http://www.w3.org/2000/svg" xmlns:xlink="http://www.w3.org/1999/xlink" x="0px" y="0px"
	 width="48px" height="40px" viewBox="0 0 48 40" style="enable-background:new 0 0 48 40;" xml:space="preserve">
<g>
	<g>
		<g>
			<path style="fill-rule:evenodd;clip-rule:evenodd;fill:#314338;" d="M9.721,15.962c-6.103,1.632-1.817,7.057-4.336,4.969
				c-1.454-0.096-2.111-0.353-2.882-0.793c0-0.335,0-0.672,0-1.007c0.199-0.729,0.179-1.661,0.389-2.377
				c2.213-1.394,4.556-2.765,6.854-4.105c2.309-1.346,3.486-2.402,5.53-3.781c0.116,1.674,1.51,2.341,1.922,2.62
				c1.046-1.292-1.036-5.868-1.298-7.049c0.025,0,0.052,0,0.077,0c0,0.023,0,0.048,0,0.072c1.21,0.97,3.35,2.071,3.429,4.034
				c1.766-0.57,3.224,0.613,4.36,1.008c1.422,0.495,2.843,0.417,4.129,0.576c2.63,0.325,4.805,1.331,6.543,2.593
				c0.847,0.615,1.52,1.46,2.492,2.017c1.134,0.648,2.063,1.074,2.959,1.873c2.444,2.178,4.271,5.026,5.608,8.426
				c0,0.024,0,0.05,0,0.073c-0.97-1.095-1.871-2.256-3.349-2.881c-0.309,0.734-0.271,1.168-0.623,1.584
				c-0.462,0.544-1.352,0.588-1.947,1.224c-0.735,0.787-0.935,2.249-0.779,3.53c0.058,0.47,0.369,0.947,0.39,1.44
				c0.026,0.655-0.429,1.736-0.467,2.521c-0.108,2.191,0.674,4.463-1.48,4.896c-0.129,0-0.259,0-0.391,0
				c-0.299-0.155-0.849-0.079-1.012-0.36c0.35-1.741,0.72-3.463,1.012-5.258c-1.277-1.242-2.86-2.204-3.349-4.177
				c-2.922,1.034-6.688,1.623-10.671,1.44c0.053,2.834-0.09,5.485-0.312,8.065c-0.138,0.139-0.387,0.172-0.545,0.289
				c-0.077,0-0.156,0-0.234,0c0-0.024,0-0.047,0-0.071c-0.341,0.026-0.4-0.207-0.7-0.218c-0.43-2.741-0.546-4.538-1.324-6.696
				c-0.741-2.057-2.896-5.124-4.907-6.123c-0.888-0.441-1.841-0.73-2.726-1.151c-1.602-0.76-3.402-1.225-3.973-2.018"/>
		</g>
	</g>
	<path style="fill-rule:evenodd;clip-rule:evenodd;fill:#314338;" d="M10.269,19.003c0.339-1.69,0.131-3.144-0.466-3.246
		c-0.597-0.103-1.354,1.185-1.695,2.875c-0.34,1.69-0.132,3.144,0.465,3.247C9.169,21.981,9.929,20.693,10.269,19.003z"/>
</g>
</svg>
